<?xml version="1.0" encoding="UTF-8"?><svg id="Camada_2" xmlns="http://www.w3.org/2000/svg" viewBox="0 0 230 342.23"><defs><style>.cls-1{fill:#2a4b95;}.cls-2{fill:#ffbe5c;}</style></defs><g id="Camada_1-2"><path class="cls-1" d="m213.8,311.13l.1.14c.1.14.13,0,.25,0l-.1-.14c-.13,0-.25,0-.25,0Z"/><path class="cls-1" d="m229.84,312.71c0-.12.13-.1.13-.23-.12-.02-.36-.18-.36-.18-.24-.29-.11-.39-.35-.67-.12-.27-.11-.39-.48-.45q-.12-.02-.24-.16s0,0,0-.12t.12.02q-.24-.16-.36-.3c-.12-.02-.36-.18-.36-.18-.48-.32-.95-.64-1.2-.55,0,0-.12-.14-.23-.28-.12-.14-.23-.28-.23-.28-.12-.14-.24-.16-.24-.03-.12-.02-.36-.18-.36-.18-.23-.28-.36-.18-.59-.33-.12-.14-.35-.3-.47-.44-.23-.16-.35-.17-.47-.19-.12-.02-.24-.03-.36-.05.12.02.23.16.35.3.09.06.14.09.23.16.05.06.07.08.11.14-.24-.03-.36-.05-.6-.08-.11-.14-.23-.28-.35-.3-.11-.14-.34-.42-.34-.42-.24-.03-.47-.31-.58-.45.12.01.24.03.36-.08-.24-.03-.48-.06-.71-.09q.23.16.47.31c-.35-.17-.47-.18-.71-.21-.35-.17-.36-.04-.13.24-.23-.15-.58-.32-1.05-.63q.12.01.13-.11t-.35-.17q-.12-.01-.24-.03s-.12-.01-.24-.02c.11.14,0,.13.1.27-.22-.28-.33-.42-.45-.56-.12-.01-.24-.02-.24-.02-.35-.16-.25.23-.71-.07-.23-.15-.36-.03-.59-.18-.12-.01-.36-.03-.59-.18-.24-.02-.36-.03-.48-.04-.24-.02-.36-.03-.7-.19-.36-.03-.93-.33-1.19-.08,0,0,.11.14.09.27.47.16.48.03.49-.1.11.14.33.29.55.57-.23-.15-.36-.03-.59-.17,0,0-.13.12-.25.12-.24-.02-.38.11-.62.09,0,0-.12,0-.35-.15.24.01.26-.12.38-.11.12,0,.36.02.27-.25-.21-.28-.09-.27.03-.26-.23-.15-.47-.16-.81-.32-.36-.02-.72-.04-1.18-.2q-.12,0-.12,0c-.48-.02-1-.25-1.52-.34-.32-.05-.77-.1-1.3-.18-.32-.05-.84-.02-1.42-.17,0,0,0,0-.12,0-.12,0-.36,0-.48,0q-.12,0-.02.14s0,0,.12,0q.12,0,.24,0s.07,0,.12,0c-.02.14-.04.27-.16.27-.12,0-.36,0-.58-.14-.12,0-.24,0-.24,0-.02.14-.16.27-.51.13.02-.14.14-.14.17-.27.12,0,.22.14.34.14-.1-.14-.2-.27-.3-.41-.24,0-.58-.14-.5.13q.1.14.2.27s-.07,0-.12,0c-.46-.14-.7-.14-.94-.14-.1-.14-.07-.27.07-.41-.24,0-.36,0-.48,0-.34-.14-.58-.13-.73,0q.1.14.32.27c.24,0,.48,0,.73,0q.1.14.07.27c0,.05-.01.08-.02.14.1.14.22.14.32.27-.12,0-.27.14-.39.14-.02.14.17.41.27.55.12,0,.24,0,.46.14-.05.05-.06.1-.05.15-.19-.11-.42-.21-.65-.3,0-.06-.03-.14-.08-.25-.22-.14-.66-.41-.87-.54.03-.14.05-.28.15-.14.44.27.46.13.71.13-.09-.05-.13-.08-.22-.14,0,0-.1-.14.02-.14-.22-.14-.34-.14-.34-.14-.24,0-.39.14-.63.14-.24,0-.7-.13-1.04-.26-.04-.05-.06-.08-.1-.14.03-.14.15-.14.17-.28,0,0,.22.13.31.27.04.05.06.08.1.14.12,0,.36,0,.61,0,.05,0,.07,0,.12,0q-.1-.14-.19-.27s.12,0,.24,0c-.1-.14-.22-.14-.43-.27-.24,0-.48,0-.85.01-.05,0-.07,0-.12,0-.12,0-.36,0-.48,0,.09.05.13.08.22.13-.12,0-.03.14-.15.14.1.14-.03.14.07.28,0,0,.12,0,.34.13-.15.14-.82-.12-.66.29-.22-.13-.43-.27-.38-.55.12,0,.05-.28.37,0,.12,0,.15-.14.27-.15-.09-.14-.22-.13-.43-.27.12,0,.24,0,.36,0-.31-.27-.46-.13-.58-.13.28.41-.18.28-.18.28-.03.14-.06.28.04.42-.24,0-.37.01-.49.01-.09-.14.03-.14-.07-.28-.18.28-.64.16-1.22.04-.04-.05-.06-.08-.09-.14t.12,0s.07,0,.12,0l-.09-.14c-.34-.13-.61.02-1.07-.1.3.27.52.4.73.53-.15.15-.4.16-.77.17q.09.14.21.13-.03.14-.15.15c-.12,0-.37.02-.49.02.12,0,.21.13.43.26.12,0,.25-.01.31.27,0,0-.61-.16-.78.18-.36.09-.69-.05-.83-.12.08-.02.14-.06.16-.13-.12,0-.25.01-.37.02-.12,0-.21-.13-.21-.13-.05-.28.07-.29.23-.44-.37.02-.79-.24-.86.05.09.14.18.27.27.41-.12,0-.25.02-.37.02-.09-.14-.3-.26-.67-.24,0,0-.67-.12-.75.36-.16.13-.78-.11-.78-.11,0,0-.41.18-.54-.24s-1.01-.16-1.22.05c-.19.19-.59.38-.98.42-.2-.12-.2-.12-.2-.12l.08.13c-.43,0-2.02.25-2.5-.18-.11-.1-.19-.18-.27-.26.12.1.22.18.27.26.13-.01.04-.15.17-.16-.21-.12-.29-.26-.29-.26.09-.3-.12-.42-.4-.67-.16-.27-.24-.4,0-.43q.12-.01.25-.03c.08.13.2.12.29.26l.08.13s.12-.01.25-.03c.08.14.21.12.21.12,0,0-.08-.14.04-.15-.08-.13.04-.15.04-.15q-.24-.4-.53-.23s-.07,0-.12.01c-.45-.1-.7-.07-1.07-.03-.25.03-.37.04-.62.07-.12.01-.25.03-.37.04-.37.04-.82-.05-1.07-.02-.17.16-.5.06-.74.09-.16.02-.33.04-.49.06.13-.02.37-.04.64.21.08.13.2.12.25-.03.17-.16.34-.2.62-.07.19.09.33.11.25-.03.12-.01.54-.21.75-.08l.08.13c-.25.03.08.13.03.28,0,0-.12.01-.25.03-.12.01-.44.01-.5.06-.08.07-.25.03-.41-.24-.08-.05-.12-.07-.2-.12-.12.01-.05.15-.17.16-.02.06-.03.09-.05.15q-.13.02-.25.03s-.12.02-.05.15c.05,0,.08,0,.13-.01.25-.03.37-.05.62-.07q.08.14.2.12c-.12.01-.25.03-.17.16t.2.12c-.25.03-.38.04-.5.06-.13.01-.05.15-.17.16-.33-.1-.43.2-.8.24q-.08-.13-.15-.27c-.13.02-.25.03-.3.18.2.12.4.24.4.24-.05.15-.1.3-.23.32l-.33-.1c-.25.03-.58-.07-.78-.19-.13.02-.18.17-.18.17.03.05.04.08.07.14.05.09.07.13.1.18l-.02.03c-.07-.05-.13-.06-.13-.06q-.2-.12-.4-.24c.08.14.15.27.02.29l-.28.2s-.02-.01-.03-.02c.13-.02.05-.15.11-.3-.13.02-.25.03-.45-.08.13-.02.18-.17.1-.3-.2-.12-.33-.1-.53-.22-.05,0-.08.01-.13.02.03.05.04.08.07.13.07.13.2.12.27.25-.13.02-.25.04-.58-.06.2.12.27.25.4.23.05,0,.08-.01.13-.02.13-.02.2.12.2.12.03.05.04.08.07.13q-.13.02-.25.03s-.07-.13-.2-.12c-.1.01-.22.11-.39.18l-.7-.17c-.2.03-.29.05-.32.1l-.63.19s-.2-.12-.4-.23q.13-.02.13-.02c.25-.04.18-.17.11-.31.06-.15.18-.17.18-.17.13-.02.18-.17.11-.31.13-.02.18-.17.31-.19-.72-.33-1.08.02-.85.71-.13.02-.38.06-.58-.06-.25.04-.31.19-.17.46q-.13.02-.13.02c-.25.04-.51.08-.76.12-.13.02-.2-.11-.32-.09q.07.13.27.25c-.38.06-.72-.32-1.03-.13.07.13.2.11.26.25-.26.04-.32.2-.38.35q-.2-.11-.2-.11.06-.16.12-.31l-.13.02q-.13.02-.32-.09.13-.02.26-.04c.06-.16.12-.31.18-.47-.13.02-.38.06-.51.08.03.05.04.08.07.13-.06.16-.12.31-.18.47.07.13.26.25.46.36.2.11.51-.08.7-.26.13-.02.31-.2.58.05,0,0,.13-.02.26-.04.26-.04.31-.19.57-.23,0,0,.13-.02.26-.04.07.02.13.03.2.04l-1.03.23-1.14.77-1.36.08-.73-.28c.03-.06.05-.12.08-.19,0,0,.06-.16.19-.18-.13.02-.26.04-.26.04-.19.18-.26.04-.32-.09-.07-.13-.13-.27-.2-.4-.13.02-.19.18-.19.18-.26-.54-.71-.61-1.35-.49-.06.16,0,.29-.06.45.06.13.19.11.19.11-.26.34-.58.25-.96.03-.32-.09-.51-.49-.51-.78.06.13.19.11.19.11.13-.02.06-.16.19-.18q.06-.16.19-.18c-.38.07-.83,0-1.09.34-.03.06-.04.1-.07.16-.26.05-.51.1-.64.12-.07.16-.2.18-.32.21.26-.05.39-.07.64-.12.06.13-.07.16-.07.16.19.11.32.09.45.06-.02-.05-.04-.08-.06-.13-.06-.13.07-.16.07-.16.26-.05.56.26.51.49-.03.14,0,.29-.07.45.13.27.19.4.25.54.07-.16.2-.18.26-.34.13-.02.19-.18.45.06.05,0,.08-.01.13-.02q.13-.02.19-.18l.06.14c.06.13-.07.16-.07.16,0,0-.13.02-.07.16,0,0,.06.13.19.11.26-.05.34-.13.39-.36.03-.13.07-.16.19-.18-.07-.13.06-.16.06-.16q.07.14.13.27s.04.09.1.2l-.24.14c-.19.06-.36.14-.44.2-.07.05-.26.05-.19-.11-.26.05-.45-.06-.58-.04-.13.02-.26.05-.39.07q-.13.02-.19-.11c-.07.16-.33.21-.39.36.26.15.47.18.66.17l-.93.17s0,0,0,0c-.06-.14-.26-.23-.25-.25,0,0,.2-.18.33-.21.05,0,.08-.01.13-.02l-.06-.13s-.13.02-.26.05c-.05,0-.08.01-.13.02,0,0-.13.02-.19-.11.26-.05.59-.25.59-.26,0,0-.26.05-.39.07.13-.32.47-.81.46-.82,0,0-.71.28-1.17.51,0,0-.08-.11-.06-.13,0-.01.13-.02.13-.02-.19-.11-.56-.16-.64-.17-.14-.02-.32-.09-.39.07.06.14,0,.29,0,.29-.13.02-.32-.08-.51-.2-.06-.13-.3-.38-.31-.38,0,0,.05.42.05.43,0,0-.13.02-.5-.49.19.11.32.08.45.06.03-.06.04-.1.07-.16.26-.05.39-.07.64-.12.13-.02.26-.05.39-.07.07-.16.32-.21.45-.23.38-.07.64-.12.9-.17-.02-.05-.04-.08-.06-.13-.05,0-.08.01-.13.02-.38.07-.96.03-1.22.38-.13.02-.48-.08-.7-.01-.54.17-1.36.41-2,.54-.26.05-.68.27-.72.29,0,0-.19-.11-.32-.08-.26.05-.52.11-.78.16,0,0-.08.15-.07.16,0,0,.45.06.76.14-.02-.05-.03-.08-.06-.13q.07-.16.26-.05c.19.11.5.19.5.19,0,0-.33.21-.46.24.13-.03.26-.05.26-.05.13-.03.19.11.32.08,0,0-.06.16-.07.16,0,0-.19-.11-.32-.08-.26.05-.58.03-.84.02-.21,0-.36-.16-.37-.22-.02-.06-.37-.22-.56-.32-.13.03-.27.11-.2.19.1.11.37.22.56.32-.13.03-.26.05-.26.05-.19-.11-.32-.08-.32-.08q-.07.16-.02.3c.02.05.03.08.06.14q-.13.03-.13.03c-.13.03-.32-.08-.32-.08-.13.03-.19,0-.19-.11,0-.09-.11-.27-.24-.24-.13.03-.13.03-.13.03l-.05-.13c.26-.05.91-.19.91-.19,0,0-.13.03-.26.05-.65.14-1.37.17-1.82.39-.68.32-1.59.33-2.17.62-.47.23-1.33.28-1.39.46-.02.04-.03.3-.03.3q.05.14.1.27c-.61.28-.67.26-.66.15,0-.09.08-.17.08-.17-.45-.05-.5-.29-.54-.32-.03-.02-.4.09-.61.29-.53.12-1.1.11-1.72.39-.48.26-1.2.39-1.81.57-1.11.33-2.58.5-3.57,1-.34.17-.63.3-1.03.4-.54.13-1.04.4-1.58.53-.67.17-1.25.16-1.89.47-.5.27-1.18.44-1.73.58-.14.03-.41.1-.54.14-.14.03-.26.2-.37.24-.47.18-1.09.28-1.74.59-.68.17-1.37.35-2.06.52-.14.04-.28.07-.28.07.06.28-.11.17-.24.21-.41.11-.72.04-1.13.14-.28.07-.66.32-1.07.42-.69.18-1.38.36-2.22.57-.56.14-1,.11-1.5.54-.06.01-.08.02-.14.04-.3-.07-.44-.03-.72.04-.14.04-.42.11-.53.28-.84.22-1.61.37-2.24.58-.78.27-1.66.58-2.51.8-.56.15-1.25.47-1.96.66l-.14.04c-.42.11-.71.18-.99.26-.14.04-.18.02-.28.07-.24.12-.55.29-.96.54-.71.19-1.44.23-2.28.59-.7.33-1.59.45-2.27.73-1.34.55-2.73.56-4.16,1.22-.58.15-1.16.3-1.73.44-.58.15-1.16.29-1.74.44-.58.15-1.16.29-1.74.44-.15.04-.44-.03-.73.04-1.16.29-2.48.6-3.65.76-.4.05-1.03.39-1.46.36-.58,0-1.24.08-1.75.14-.4.05-.73.18-1.02.1-.15.04-.58-.11-.58-.15,0-.09.89-.64,1.34-1.04v.14s0-.29,0-.43c.04-.02.12-.05.22-.05.08,0,.13.02.16.04.05-.03.11-.07.18-.11.07-.04.15-.1.2-.1.04,0,.28.08.57-.04.22-.09.37-.25.42-.31.17-.26.3-.64.58-.57.29-.07.87-.36,1.01-.25.14.1.49.25.87.22.36-.03.86-.21,1.3-.18,0,0,.29-.07.29.07.15.11.64.16.73.11.13-.08.29-.22.43-.25.43-.25.69-.58.85-.79.16-.21.27-.64.56-.86.28-.36.25-.69.27-.79.02-.1.42-.39.7-.61,0-.06,0-.09,0-.14,0-.29-.05-.47-.02-.71.05-.41-.02-.71-.16-.82-.14-.11-.37-.01-.42-.04-.1-.04-.43-.32-.57-.57,0-.14-.14-.25-.15-.39,0-.06,0-.09,0-.14,0-.14-.03-.19,0-.29.05-.14.27-.36.27-.5,0-.14.11-.35.13-.46.05-.27.13-.61.26-.93-.28-.36-.07-.98-.02-1.14.04-.13.26-.5.26-.78,0-.14,0-.43,0-.57,0-.29-.14-.39,0-.57.13-.46.2-.8.25-1.21.03-.24,0-.57-.01-.86-.13-.11-.12-.42-.14-.54-.06-.35-.14-.68-.14-1.11-.13-.25-.35-.69-.4-.9-.03-.11-.13-.25-.26-.51,0,0,0-.14-.13-.25-.13-.11-.13-.4-.26-.51-.26-.22-.54-.51-.64-.55-.04-.02-.26-.08-.38-.04-.26.21-.39.1-.51-.01-.25-.22-.51-.3-.89-.34-.13.03-.26.07-.51-.01l-.13.03c-.39.1-.64.02-.89-.06-.12-.11-.25-.08-.38-.05-.39.1-.77.19-1.16.29-.13.03-.12-.11-.12-.11-.51.13-1.03.26-1.54.39q-.13.03-.13.03c-.26.06-.52.13-.77.19l-.13.03c-.64.16-1.29.32-2.07.5-.01.15-.14.18-.4.24-.26.06-.53.27-.79.33-.26.06-.52.12-.78.19-.39.09-.69.13-.91.22-.5.18-.97.45-1.47.63-.45.16-1.05.24-1.59.51-.26.06-.69.24-1.07.38-.11.04-.13.03-.13.03-.25-.09-.53.12-.66.15-.26.06-.71.21-.95.35-.14.08-.28.2-.42.23q-.13.03-.27.06c.11.12.09.26-.04.29-.27.06-.42.23-.55.26q-.13.03-.27.06c0-.06.01-.09.02-.15.12-.03.25-.06.39-.21-.45.12-.9.27-1.32.41-.34.12-.8.17-1.23.4-.42.23-.71.23-1.1.37-.22.08-.73.38-.99.49-.1.04-.13.03-.13.03-.22-.24-.54.11-.81.16-.27.05-.73.37-1,.48-.1.04-.14.03-.14.03-.54.11-1.08.21-1.68.61-.05.01-.08.02-.14.03-.41.08-.85.3-1.39.41-.41.08-.85.3-1.43.55-.41.07-.85.3-1.3.52-.28.05-.72.21-1,.32-.21.08-.72.27-1.17.49-.42.07-1.01.31-1.42.38-.14.02-.28.05-.45.22-.14.02-.3.14-.45.22-.26.13-.89.1-1.26.2-.55.15-1.56.44-1.79.71-.05.06-.14.02-.18.17-.42.06-.93.36-1.35.49-.24.07-.71.1-1.03.29-.28.04-.75.25-1.03.29-.18.17-.47.21-.61.23-.43.06-.85.11-1.37.47-.43.06-.9.2-1.33.31-.24.06-.62.22-.95.41l-.14.02c-.43.05-.91.25-1.34.3-.14.02-.29.03-.48.2-.62.22-1.06.26-1.49.31-.08.07-.11.1-.19.17-.14.02-.19.17-.34.18-.15.01-.34.18-.48.2-.1-.14-.27-.03-.44.04-.19.08-.63.21-.92.24-.15.01-.49.19-.63.21-.29.03-.58.05-.93.23-.29.03-.68.29-.98.38-.23.07-.7.16-.93.23-.3.09-.79.21-1.08.23-.49.19-1.09.31-1.44.4-.3.08-.65.19-1,.36-.3.02-.8.14-1.24.23-.25.05-.65.19-1.1.21-.45.03-.86.34-1.31.37-.45.02-.86.28-1.31.36-.25.05-.57.13-.81.18-.31.07-.81.18-1.32.35-.3.01-.86.1-.97.18-.06.04-.21.16-.36.16-.3,0-.51,0-.82.17-.2.12-.58.31-.73.32-.24-.15-.67.16-.98.17-.15,0-.37.16-.52.16-.31,0-.52.16-.83.16-.52.16-1.05.31-1.35.31-.15,0-.39.14-.53.15-.62.07-1.27.39-1.74.45-.26.04-.59.1-.84.15-.32.06-.91.3-1.22.29-.53.14-.88.12-1.38.28-.37.12-.69.14-1.07.28-.22.15-.38.14-.69.13-.31,0-.85.13-1.24.27-.38.14-.54.13-.86.12q-.23.15-.38.14c-.39.14-.92.21-1.25.25-.25.04-.7.12-1.09.26-.55.13-1.16.34-1.65.38-.14.01-.16,0-.32-.02-.23.14-.55.12-.94.25-.39.13-.79.26-1.27.23-.55.12-1.13.26-1.51.36-.52.14-.88.09-1.28.21-.56.11-1.16.2-1.68.33-.39.09-.8.24-1.29.19-.4.12-.87.33-1.21.35-.13.01-.57.1-.89.06-.81.23-1.38.33-1.96.42-.57.09-.98.2-1.48.14-.16-.02-.08-.17-.25-.19-.08-.17-.25-.19-.58.09,0,0-.35.12-.49.26-.35.34-.63.44-.83.54-.06.03-.33.28-.41.43-.03.06-.05.09-.08.15-.08.15.08.17,0,.33-.08.15-.25.46-.41.76-.07,0-.1-.01-.17-.02-.08.15-.25.46-.33.61.03.07.05.1.09.17-.08.15-.1.27-.16.3-.02.01-.25-.02-.48.09-.24.12-.41.35-.48.55-.06.17-.16.36-.24.55-.12.29-.22.63-.34.86-.19.38-.29.69-.27.86.02.13.05.13.4.68.26.4.32.51.52.65.16.12.36.18.44.23.07.04.15.15.22.24.03.04.07.1.1.12.07.07.23.14.35.25.1.09.17.18.23.26.02,0,.19-.04.29.06.11.1.03.25.03.27.15-.02.22-.04.22-.04,0,0-.17.28-.16.3,0,.01.23-.13.25-.13,0,0,.19.34.36.36.02.32.28.51.7.4.07,0,.1.01.17.02.36.36,1.03.1,1.37.14.51.05,1.35-.19,1.94-.3.59-.11.85.07,1.34-.2,0,0,.17-.08.17.01,0,.1.58-.11.68.05.1-.06.15-.08.24-.14.15-.3.41-.13.58-.11.34.02.58-.12.92-.09.51.03,1.09-.08,1.5-.22q.17.01.34.02c.17.01.34.02.51.03.07-.15.26-.2.41-.13.21.09.91-.11,1.32-.24q.17,0,.17,0c.48-.29.91-.11,1.31-.25.4-.14.74-.12,1.14-.26.17,0,.33.01.33.01.57-.13.9-.12,1.3-.27,0,0,.11-.3.13-.3l.27.16c.33,0,.56-.07.9-.13.13-.02.33,0,.73-.14,0,0,.03.03.17,0,.34-.06.89-.14,1.29-.28.39-.15.56-.14.73-.14.16,0,.17,0,.17,0,.46-.3.78-.12,1.12-.3.22-.11.39-.15.56-.15.33,0,.66,0,1.05-.15,0,0,.1.04.16,0,.11-.08.39-.15.55-.15.16,0,.37-.1.55-.15.11-.03.49,0,.88-.16q.16,0,.39-.16c.22-.15.39-.16.49,0,.09-.06.13-.09.22-.15.16,0,.33,0,.33,0,.61-.31,1-.26,1.42-.33.49-.08,1.09-.33,1.58-.34.22-.16.6-.32.76-.32.16,0,.32-.01.48-.02.54-.17,1.08-.34,1.62-.51.54-.17.86-.18,1.34-.21.16,0,.16,0,.16,0,.59-.33,1.12-.5,1.6-.53,0,0,.19.01.32-.02.32-.08.96-.43,1.43-.53.41-.08,1.16-.22,1.64-.25.05-.15.1-.3.31-.46.04.06.06.08.11.14.16-.01.32-.02.32-.02.52-.18,1.1-.52,1.52-.41.31-.02.84-.21,1.2-.39.36-.18.83-.22,1.15-.24.36-.18.67-.21.99-.23.2-.16.39-.16.52-.19.32-.09.67-.21.87-.37.31-.03.63-.09.98-.24.48-.21.82-.23,1.29-.28.31-.03.51-.2,1.02-.4-.04.15.22.02.46-.05.31-.09.86-.39,1.32-.44.15-.02.38-.21.5-.2.36.02.96-.26,1.46-.46.31-.04.81-.24,1.11-.28.31-.04.5-.21.76-.1.31-.04.65-.27.84-.4.29-.2.53-.36.69-.38.3-.04.72-.05,1.1-.29.18-.11.53-.36.79-.25.11.13.49-.15.79-.26.23-.08.65-.07.75-.11.46-.18,1.01-.42,1.46-.65.33-.17.63-.24,1.08-.31.03-.15.18-.17.33-.2.3-.05.53-.19.78-.27.44-.13.96-.38,1.26-.49.23-.08.7-.32.92-.29.21.02.78-.21,1.07-.32.11-.04.3-.05.33-.2.15-.02.33-.2.44-.08.12.12.32-.15.47-.22.09-.05.3-.05.59-.1.18-.18.32-.2.47-.23.15-.03.38-.12.59-.1.22.02.59-.1.88-.16.32-.2.61-.25.93-.46.29-.05.44-.08.61-.26.06-.01.09-.02.15-.03.24.24.61-.26.9-.31.29-.05.73-.14,1.19-.37.15-.03.31-.15.46-.23.09-.05.17-.18.29-.06.27.09.49-.22.6-.26.28-.11.36-.5.63-.41.15-.03.27.09.27.09.43-.09.82-.25,1.18-.38.42-.15.91-.47,1.34-.56t.14-.03c.29-.06.85-.25,1.02-.35.14-.08.45-.24.73-.3.07-.07.1-.11.16-.18.71-.15,1.54-.27,2.16-.6.29-.16.73-.3,1.01-.36.06-.01.09-.02.14-.03.3-.21.6-.42.72-.3.39.2.89-.17,1.13-.25.54-.18,1.16-.54,1.72-.67.28-.06.42-.1.58-.27.14-.03.5-.21.56-.13.03.04-.01.15.14-.03.14-.03.42-.1.42-.1,0,0-.62.86-.93,1.21-.17.32-.47.71-.8,1.18-.24.35-.55.77-.84,1.25-.25.42-.43.93-.62,1.16-.07.09-.33.27-.52.56-.14.22-.2.46-.25.53-.08.12-.38.33-.57.62-.23.37-.25.65-.36,1.05-.18.68-.39.91-.53,1.32-.17.49-.28,1.49.31,2.17.09.1.39.35.48.8.06.32-.04.67-.02.79,0,.08.13.24.23.37.09.11.2.19.26.26.05.06.13.21.28.31.1.07.27.11.28.14,0,0-.04.28.15.41.13.08.28.06.33.05.22-.05.29-.01.32.03.04.07-.03.17.03.28.02.04.08.09.1.12.06.14.11.55.24.95.14.26.26.66.71.84,0,0,.15.11.3.08,0,.14.11.38.13.4.01.01.15.11.29.22.16-.03.43-.03.61,0,.1.02.46.04.6.29,0,0,.02.16.15.11.44-.16.77-.03,1.07.18.3.22,1,.19,1.38.4.14.08.54-.14.78-.04.41.18,1.24-.15,1.7.31.31-.22.62.14.78-.18.06.04.09.06.15.11.15.25.65.05.94-.08.24-.11.62-.15.78-.04.62-.15,1.17-.06,1.72-.13.28-.04.62-.15.94-.08.62-.15,1.4-.34,2.02-.49.62-.15,1.4-.34,2.17-.54.15-.04.3-.22.61-.3,0,0,.15-.04.31-.08q.16.1.32.07c.62-.15,1.08-.27,1.7-.42.45-.26,1.07-.41,1.53-.53t.14-.18c.3-.22.82-.26,1.08-.27.37,0,.96.19,1.22-.45.06-.02.09-.02.15-.04.61-.16,1.07-.27,1.67-.57.15-.04.32.06.46-.12.31-.08.61-.16.75-.33.14-.18.29-.22.59-.3.15-.04.46-.12.76-.19,0,0,.15-.04.29-.22.15-.04.4-.3.44-.26.08.09.61-.16.74-.33.06-.02.09-.02.15-.04.76-.19,1.66-.42,2.4-.76.3-.08.75-.19,1.2-.31.3-.08.6-.15.88-.37.15-.04.3-.08.45-.12.3-.08.75-.19,1.05-.27.15-.04.3-.08.45-.12.45-.11.81-.16,1.2-.31.54-.2,1.32-.48,1.91-.63.05-.07.07-.11.12-.18.15-.04.42-.25.42-.25.32.06.59-.15.89-.23.59-.15,1.16-.44,1.75-.59.74-.19,1.68-.35,2.03-.66.12-.11.26-.21.26-.21.29-.07.62-.01.85-.36.12-.17.26-.21.53-.42.06-.01.09-.02.15-.04.15-.04.32.06.44-.11.12-.17.41-.25.55-.28.29-.07.58-.15.87-.22,0,0,.11-.17.26-.21.14-.04.47-.33.55-.28.06.03-.08.31-.19.48-.15.04-.38.21-.4.25-.02.03.03.14.18.1.15-.04.47.03.55-.28.18.1.32.06.32.06.15-.04.11-.17.26-.21.32.06.65.13,1.02-.25.06-.01.09-.02.15-.04.5.17.91-.08,1.2-.15.73-.18,1.27-.46,1.85-.6.14-.04.18.1.33.07.14-.04.29-.07.43-.11.29-.07.54-.28.87-.21.29-.07.44-.39.5-.41.02,0,.18.1.18.1.58-.14,1.05-.11,1.4-.48l.14-.03c.57-.14,1.11-.41,1.72-.41.14-.03.14-.08.24-.2.17-.2.29-.07.47.03.43-.1.62,0,.56.31.14-.03.21-.01.29-.07.09-.07.24-.2.34-.37.14-.03.43-.1.67-.3.06-.01.09-.02.14-.03.43-.1.85-.2,1.28-.3,0,0,.14-.03.28-.07.14-.03.42-.22.52-.27.21-.11.52-.27.8-.33.06-.01.09-.02.14-.03.33.07.5-.06.71-.16.2-.1.47.04.76-.02.14-.03.42-.1.52-.26.09-.17.42-.1.42-.09,0,0-.19.32-.18.33,0,0,1.55-.34,2.26-.5.14-.03.32-.04.42-.09.2-.1.41-.53.88-.48.28-.06.65-.28.98-.21t.14-.03c.23-.19.85-.24,1.12-.24.22,0,.5-.25.78-.31.14-.03.28-.06.42-.09.14-.03.47.05.5-.25.08-.16.27-.11.42-.08.09.01.14-.03.28-.06.06-.01.08-.02.14-.03.42-.08.78-.3,1.25-.25,0,0,.14-.13.22-.19.06-.05.28-.05.55-.11.28-.05.62-.03.89-.03.11,0,.28-.05.55-.11.22-.19.49-.24.77-.29.28-.05.75,0,1.1-.21.41-.08.82-.15,1.24-.23.27-.05.48-.23.69-.12q.14-.02.14-.02c.27-.05.62-.26.89-.3.68-.12,1.29-.08,1.84-.17.82-.14,1.64-.27,2.45-.4.14-.02.07-.16.2-.18.14-.02.2-.18.41-.06.2.11.34.09.48.07.27-.04.41-.06.68-.1.27-.04.61-.24.95-.14.27-.04.4-.35.81-.12-.03-.05-.04-.08-.07-.13.13-.02.35-.02.4-.06.06-.05.12-.31.54-.08.27-.04.52.1.61.06.17-.08.46-.21.81-.11.27-.04.73-.14.94-.13.28.02.54-.07.88.03.27-.03.54-.07.67-.08.13-.02.34.1.4-.05.06-.15.4-.05.67-.08.67-.08,1.34-.16,2.14-.25.27-.03.75.06,1.01.03.05,0,.08,0,.13-.01.27-.03.58-.2.93-.1.05,0,.08,0,.13-.01.1-.3.32-.17.58-.2.05,0,.08,0,.13-.01.26-.03.28-.45.79-.07.61.09,1.01.05,1.54,0,.13-.01.26-.02.48.1q-.08-.14-.17-.27c-.17-.27-.39-.4-.08-.56-.08-.14-.18-.25-.17-.27,0,0,.39-.03.61.09.13-.01.26-.12.31-.17.08-.07.26-.02.43.25.09.14-.01.2-.31.17-.11-.01-.35-.11-.35-.11,0,0,.52.39.65.38.26-.02.48.11.44-.17.05,0,.08,0,.13,0,.26-.02.5-.14.57-.18.18-.1.52-.46.91-.48.26-.02.39-.02.56-.17t.13,0c.22.13.39.09.48.11.17.04.53.39.53.39.48.11.74.1,1.13.08-.14-.41.03-.44.34-.29.21.1.26-.01.39-.02.13,0,.26-.01.39-.02.13,0,.35.13.61.12.17-.15.42-.15.78-.03.05,0,.08,0,.13,0,.13,0,.04-.14.16-.14.26,0,.39-.01.42-.15.07-.28.33-.29.49-.43,0,0,.14.09.22.13.06.03.26,0,.26,0,.26,0,.87.06.99.12.08.04-.03.14-.03.14-.16.14-.42.14-.58.29.1.14.58.27.61.13.03-.14.29-.14.45-.28q.03-.14.16-.14c.13,0,.48.13.38,0,.26,0,.4-.02.51,0,.43.06.77,0,1.22.27,0,0,.13,0,.26,0,.01-.05.02-.08.03-.14.48.14.87.14,1.25.15.13,0,.26,0,.51,0,0,0,.13,0,.23.14.23.14.48.16.48.15,0,0-.33-.28-.3-.41,0,0,.25,0,.15-.13-.1-.14.03-.13.15-.13.13,0,.15-.13.05-.27-.04-.06-.06-.08-.1-.14,0,.05-.01.08-.03.13-.13,0-.25,0-.48-.15-.1-.14.02-.13.02-.13.25,0,.13-.23.05-.27-.06-.03-.23-.2-.33-.28-.22-.17-.71-.29-1.06-.43,0,0-.11-.1-.1-.14.01-.04,1.22.17,1.23.16h.24s0,0,.01,0c.13,0,.25,0,.5.01,0,0-.01-.02-.04-.06l.22-.07c.12,0,.23,0,.35.01.06,0,.08,0,.09-.01.06.03.13.07.25.13.12.06.25.08.39.1,0,.03-.01.05-.02.08.23.14.48.15.73.16,0,0,.1.14.21.28.1.14-.15.13-.27.12-.23-.14-.35-.15-.61-.16-.13,0-.27.12-.42.25-.13,0-.02.13-.05.27l-.1-.14s-.1-.14-.21-.28c-.13,0-.38-.01-.73-.16l.1.14s.1.14.23.14q-.13,0-.25,0c.23.14.48.15.61.15.13,0,.46.28.61.15,0,0,.25,0,.58.29-.13,0-.13,0-.25,0-.13,0-.02.13-.02.13q.1.14.33.28c.13,0,.38.01.3-.26t.13,0c.05,0,.08,0,.13,0,.04.06.06.08.1.14-.02.13-.15.13-.17.26-.05,0-.08,0-.13,0,0,0,.1.14.21.28.13,0,.25,0,.38.01-.13,0-.02.13-.15.13.13,0,.36.15.36.15.13,0,.15-.13.15-.13.25.01.28-.12.4-.12.13,0,.23.14.36.15.38.02.63.03.89.05.13,0,.02-.13.15-.12q-.13,0-.36-.15c.13,0,.15-.12.27-.12q.21.28.45.42c.25.01.38.02.61.17-.11-.14.02-.13.04-.26q.11.14.21.28c.13,0,.25.02.38.03.13,0,.14-.12.16-.25.05,0,.08,0,.13,0,.02-.13.14-.12.38.03.05,0,.07,0,.12,0,.02-.13.38.03.63.05.03-.26.28-.24.42-.36.12.01.01-.13-.09-.27,0,0-.11-.14-.23-.15.03-.26.06-.52.32-.62.33.42.08.4-.04.39.12.01.25.02.36.16.48.17.62.06.29-.36-.22-.28-.57-.57-.58-.44-.14.12-.37-.03-.73-.2-.1,0-.18-.05-.25-.1.03-.19.05-.39.18-.56,0,0,0,0,.01.01,0,0,.11.14.22.28.26-.11.48.17.82.47-.11-.14-.22-.28-.22-.28-.22-.28-.32-.55-.08-.53.24.02.6.19.85.21-.34-.42-.32-.68-.3-.93.11.14.36.17.47.31.11.14.1.27.33.55.05,0,.07,0,.12.01,0-.13-.1-.27-.21-.54.23.15.35.3.58.45.12.01.13-.11.37-.08q-.12-.01-.23-.15s-.12-.01-.36-.04c.13-.11.49-.07,1.09.13t0,.13c.36.17.24.16.34.42.12.01.24.03.36.05.12.02.71.47.83.61q.11.14.11.14c-.49-.06.1.39.21.66.11.14.35.42.46.57.59.46.49.19.74.1.12.14.23.28.11.27.09.52-.3.72-1.16.48.11.14.23.28.34.42.01-.13.14-.11.14-.11.35.3.48.31.6.33.38.05.74.22,1.11.4.13.02.25.03.38.05-.23-.28-.47-.44-.71-.6.12.02.25.03.37.05.26-.09.51-.18.77-.26,0-.12.25-.09.38-.19,0-.12,0-.25.13-.23.13-.1,0-.25-.11-.39Zm-214.37,17.79c.32.02.64.05.89.22-.32-.02-.64-.05-.89-.22Zm48.81-11.93q-.14.02-.24-.11l.04-.15q.14-.02.28-.04s.14-.02.28-.04c-.18.17-.36.34-.36.34Zm3.75-1.84c.28-.04.46-.21.46-.21.24.11.35.23.59.34-.6.24-.67-.04-1.05-.13Zm2.95-.46q.07-.3.31-.19s-.17.17-.31.19Zm6.69-2.6c-.11-.12-.24-.1-.38-.07l.03-.15c.14-.03.27-.05.27-.05.14-.03.11.12.08.27Zm13.35,18.51c.15-.03.3-.07.46-.1q-.31.21-.46.1Zm48.81-12.5c-.03-.14-.06-.27-.06-.27.14-.04.28-.07.57-.14-.08.31-.5.42-.5.42Zm.8-4.72c.27-.07.41-.1.69-.17-.07.31-.35.38-.69.17Zm79.99-7.87c0,.13.1.27.1.27,0,0-.12-.01-.35-.16.12.01,0-.13.25-.1Zm-1.29-.52c.12.01.24.02.36.03.04.06.07.08.11.14-.12-.01-.24-.02-.48-.05.12.01,0-.13,0-.13Zm-1.3,1.06s.23.15.47.17c-.01.13-.02.26-.02.26-.23-.15-.46-.3-.58-.31q.01-.13.13-.12Zm-.36-1.47c-.24-.02.32.55-.37.1.01-.13-.09-.4.37-.1Zm-1.33,1.22q.12,0,.35.15-.01.13-.14.12s-.12,0-.35-.15c.12,0,.14-.12.14-.12Zm-.96-.19s.23.15.12,0c.26-.12.46.29.68.44-.24-.02-.38.11-.62.1l-.19-.11c.08.03.19.11.19.11-.21-.28-.44-.42-.68-.44.04.02.05.04.08.07l-.54-.33c.31.03.62.08.96.16Zm-5.3-1.42c-.26-.23-.38-.36-.52-.55.14-.13.38-.13.74-.12.04.06.06.08.1.14-.36,0-.73-.02-.32.53Zm2.04-.74c.02-.13.24,0,.22.14.24.01.58.16.7.17.1.14.09.27.19.41-.05,0-.07,0-.12,0-.12,0-.22-.14-.22-.14-.21-.28-.33-.28-.47-.15-.24,0-.36-.01-.57-.29.02-.13.14-.13.26-.12Zm-.38.12c.21.28-.03.27-.17.4-.1-.14.02-.13-.08-.27-.22-.14-.45-.28-.67-.43.26-.13.69.29.93.3Zm-2.35-.47c.12,0,.24,0,.36,0,.24,0,.48.01.72.02,0,0,.1.14.2.28.1.14-.02.13.08.27q-.22-.14-.34-.14c.12,0,.02-.13.02-.13-.12,0-.34-.14-.34-.14-.24,0-.38.13-.5.12-.23,0-.15.12-.06.24-.03-.04-.05-.07-.08-.11.3.41-.06.41.04.54-.12,0-.22-.14-.44-.28.12,0,.24,0,.36,0-.1-.14-.22-.14-.22-.14q-.08-.27-.3-.41c.14-.13.16-.27.5-.13Zm-2.68.79c-.07-.27-.05-.41.27-.14.04.05.06.08.1.14-.12,0-.24,0-.37,0Zm.2.27c.12,0,.15-.14.27-.14q.12,0,.24,0,.34.14.15-.14s0,0,.02-.14c.09.05.13.08.22.14,0,0,.1.14-.02.14.37,0,.61,0,1.07.15-.22-.14-.44-.28-.66-.42.24,0,.51.12.81.28.34.19.71.15,1.15.43,0,0-.14.15-.46.22.05-.07.08-.14.09-.22-.24,0-.47-.14-.79-.42t-.02.14c.12,0,.22.14.32.28-.22-.14-.34-.14-.47-.14.22.14.34.14.57.28-.24,0-.27.13-.51.13.04.02.07.02.1.03-.12.02-.21.03-.29.05-.05-.07-.08-.11-.16-.22,0,0,.12,0,.24,0-.34-.14-.47-.14-.71-.14.1.14.2.27.42.41,0,0-1.15.27-1.45-.14.02-.14-.07-.27-.15-.55Zm-1.54,2.77c.03-.14.06-.28.41-.15-.03.14.03.41.41.41l.1.14s0,0-.13,0c-.13,0-.38,0-.73-.12-.05,0-.08,0-.13,0-.09-.14.03-.14.06-.28Zm-1.4-3.99c.1.14.22.13.31.27,0,0-.12,0-.03.14q-.22-.14-.31-.27s0,0,.03-.14Zm-.75.71c.12,0,.34.13.34.13-.19-.27-.04-.41.18-.28.1.14.22.13.22.13q.12,0,.12,0c.08.12.17.24.25.36l-.11.03c-.19-.24-.42-.25-.66-.24q.09.14.19.27c.1,0,.26,0,.39,0h-.03s-.23.3-.23.3c0-.07-.04-.17-.13-.29-.12,0-.37,0-.49.01q.22.13.34.13l.09.14c-.12,0-.46-.13-.59-.12l-.09-.14q.12,0,.25,0s-.22-.13-.31-.27c.03-.14.15-.14.27-.15Zm-1.33-.66c.09.14.31.27.4.41q-.12,0-.15.14.12,0,.34.13-.12,0-.03.14.12,0,.25,0c-.12,0-.15.14-.28.15.04.05.06.08.09.14.03.04.06.07.09.1h-.01s-.34-.09-.34-.09c0,0,0,0,.01,0-.31-.27-.52-.4-.71-.67.03-.14.18-.29.33-.43Zm-.43.85s.02.02.02.03l-.1-.03s.05,0,.08,0Zm-1.32-.08c.12,0,.16-.15.28-.15.03-.14.28-.15.52-.16,0,0-.21-.13-.31-.27.12,0,.25,0,.37-.01t.12,0c.09.14-.03.14-.03.14q-.03.14-.15.15c.09.14.18.27.06.28l-.86.04s0,0,0,0Zm-3.43.05l.08-.07s-.02.07-.08.07Zm-4.57,3.08c.08.13.21.12.29.26-.51.05-.9.09-1.29.13-.07-.12-.05-.26-.17-.5h0s.77.15.77.15c.13-.01.26-.02.38-.04Zm-2.55-.16c.34.11.47.09.72.07q-.1.3-.69.22c.13-.01.05-.15-.03-.28Zm-14.77,1.4s0,0,0,0c0,0,0,0,0,0,0,0,0,0,0,0Zm-10.73.66s.07-.04.1-.08c.08-.02.11-.02.17,0l-.27.08Zm-1.49.53c.21-.17.48-.22.58-.26l-.58.26Zm26.18-5.56h-.05s.04,0,.05,0h0Zm-.01-.25c-.08-.13-.28-.26-.28-.26-.08-.13-.28-.26-.28-.26-.08-.13.04-.15.04-.15.2.12.33.11.53.23-.05.15.03.28-.01.43Zm-.64-1.08c.12-.01.17-.16.17-.16.12-.01.25-.03.25-.03,0,0,.08.13.2.12-.12.01-.04.15-.17.16-.25.03-.17.16.04.28t-.12.01c-.03-.05-.05-.08-.08-.14-.2-.12-.33-.11-.45-.09.05-.15.17-.16.17-.16Zm-1.64,1.24l-.05.02s0-.04,0-.06c.03.02.04.02.06.04Zm-3.55.99c.03.05.04.08.07.13-.07,0-.13.02-.18.02l-.7-.17c.3,0,.61.04.81.01Zm-9.62.36s0,0,.06-.16c.13-.02.26-.05.51-.09,0,0,.07.14.19.11-.03.06-.04.09-.06.16-.13.02-.45-.07-.71-.02Zm.9.72c.11-.26.44-.06.58-.07l-.27.16s-.19-.1-.31-.08Zm-1.49.7l.06.13c-.13.02-.39.07-.52.09q-.06-.13-.06-.13c.13-.02.39-.07.52-.09Zm.13.27c.06-.01.12-.02.17-.03l-.19.04s.01,0,.02,0Zm-2.65-.24c.07-.16,0-.29,0-.29.07-.16.2-.18.52-.1-.2.18-.07.45.12.56-.14.32-.72.27-.72.28,0,0,.32.09.51.2l-1.31.35s.01-.06,0-.1c.13-.02.16-.05.26-.05.26,0,.39-.07.4-.37.05-.01.08-.02.13-.03-.05-.02-.27-.1-.5-.07.16-.08.52-.26.57-.38Zm-.57-.33q.13-.03.26-.05.06.13.06.13c-.13.02-.07.16-.2.18-.08-.04-.11-.07-.19-.11t.07-.16Zm-.64.33c.11.07.15.08.3.18l.39-.07s-.12.26-.13.3c-.05.01-.09.02-.14.04-.1.05-.16.13-.2.18,0,0-.13.02-.2.19-.02-.05-.04-.08-.06-.13-.06-.13.01-.29.14-.32-.06-.13.2-.19.2-.19,0,0-.39.08-.52.1,0-.13.11-.21.22-.28Zm-.81.54c.06.13.12.27-.01.29.13-.03.55-.04.58.03.01.03-.07.16-.14.32,0,0,.02,0,.04,0l-.64.21c.05-.05.08-.09.07-.12-.02-.05-.45-.06-.58-.03-.03-.07-.02-.14,0-.2.25-.09.55-.2.55-.2,0,0-.19-.11-.25-.24.13-.03.07-.16.2-.19.13-.03.19.11.19.11Zm-1.3-1.35c.07-.16.65-.13.78-.15.13-.03.07-.16.14-.32.12.27.11.56.17.7-.13.03-.32-.08-.51-.19.02.05.04.08.06.13-.13.03-.26.05-.39.08q-.13.03-.26.05c.07-.16.01-.3.01-.3Zm-.46.24c-.13.03-.19-.11-.19-.11.13-.03.26-.05.39-.08.02.05.03.08.06.13-.13.03-.26.05-.26.05Zm.46,1.08c.07-.16.01-.3.01-.3.2-.19.27-.35.48-.53.13-.03.07-.16.26-.05,0,0,.06.13.19.11-.52.1.05.43-.02.59-.13.03-.32-.08-.45-.06q.06.13-.01.3c-.13.03-.32-.08-.45-.06-.26.05-.39.08-.57-.33.19.11.38.22.57.33Zm-.88-.41c-.07.16-.02.3.04.43-.19-.11-.32-.08-.51-.19.07-.16.2-.19.47-.24Zm-.97.05q-.02.3-.6.27c.15-.32.34-.22.6-.27Zm-1.28,1.73c.26-.06.36-.34.36-.52,0-.11.1-.46.12-.76.19.11.37.22.43.35.06.14-.02.3-.02.3.19.11.23.07.32.08.14.02.32.08.38.22.32.08.34-.04.39-.08.08-.06.1-.31.15-.32.04-.01.19.11.32.08.06.13.04.43.3.38.13-.03.26-.05.39-.08.02-.3.23-.19.4-.08.1.07.2.1.29.1l-.4.13s-.05-.03-.09-.05c-.13.03-.4.08-.53.11.02.05.03.08.06.13l-.91-.11c-.4.08-.72,0-1,.35l-.26.08s0-.01,0-.02c-.06-.13-.19-.11-.19-.11-.26.06-.4.08-.58-.02.03-.07.05-.1.08-.16-.26.06-.69-.16-.69-.29,0-.05.26-.06.69.29Zm-.34-1.54c-.45-.05-.65.14-.97.06.36-.52.36-.52.97-.06Zm-.49.54c.13-.03.26-.06.32.08,0,0,.05.13.11.27l-.13.03c-.05-.13-.24-.24-.29-.38-.19-.11-.32-.08-.45-.05-.13.03-.16.33-.39.08.23-.49.42-.38.84-.03Zm-.89,1.36c.05.14-.04.28-.03.3,0,0,.53-.11.87-.33,0,0,.22-.08.26-.06.04.02.11.27-.16.33-.27.06-.66.12-.66.14,0,0,.18.1.24.24l-.05.02c-.11.04-.2.09-.4-.07-.15-.11-.19-.11-.11-.27-.13.03-.17.06-.27.06-.39-.03-.48.25-.56.41-.27.06-.96.1-.99.07l.16-.33q.08-.16.21-.19c.13-.03.27-.06.4-.09.27-.06.4-.09.66-.14.13-.03.27-.06.4-.09Zm-1.48-.12c.13-.03.26-.06.4-.09q-.16.33-.4.09Zm-1.65-.96c.39-.09.66-.15.87-.34,0,0,.18.11.23.24.13-.03.21-.19.34-.22t-.18-.11c.26-.06.52-.11.6-.28.13-.03.18.11.37.21.13-.03.26-.06.45.05-.08.16-.21.19-.29.36-.05-.14-.1-.27-.16-.41-.13.03-.26.06-.39.09.18.11.29.38.34.51-.08.16-.32-.08-.55-.32-.08.16-.34.22-.53.12-.05.01-.08.02-.13.03q.05.14.05.14c-.13.03-.26.06-.39.09-.13.03-.26.06-.29.36-.05.01-.08.02-.13.03-.18-.11-.23-.24-.28-.38.03-.07.05-.1.08-.16Zm-1.57.79c.13-.03.05.14.1.27.18.11.01.44.41.35-.05-.14-.1-.27-.15-.41.27-.06.58.02.71-.01,0,0,.05.14.1.27q.08-.17.03-.3c.13-.03.26-.06.26-.06q.13-.03.18.11c-.03.07-.05.1-.08.17-.35.22-.8.18-1.06.24.05.14.18.1-.03.3,0,0-.22.2-.32-.08,0,0-.23.03-.31-.08-.12-.14-.01-.44.25-.5-.05-.14-.23-.24-.36-.21-.02-.05-.03-.08-.05-.14.13-.03.31.08.31.08Zm-.8.18c.13-.03.27-.06.4-.09-.08.17-.04.3-.04.3-.17.33-.44.39-.8.18.09-.17.35-.23.44-.39Zm-1.91.29c.09-.17.8-.18.98-.08.23.24-.04.3-.04.3-.27.06-.53.12-.8.19.13-.03.09-.17.22-.2-.02-.05-.03-.08-.05-.14-.13.03-.27.06-.4.09q.09-.17.09-.17Zm-1.11.55c-.13.03-.4.09-.53.13.22-.2.36-.23.53-.13Zm-3.31,1.37s0,0,.18.1c-.13.03-.09.17-.23.2-.07-.04-.11-.06-.18-.1.14-.03.09-.17.23-.2Zm-1.78-.15c.04.14.08.27.12.41-.31-.07-.45-.04-.62-.14.1-.17.36-.24.5-.27Zm-.8,1.22c-.06.31-.02.44-.33.37.1-.17.06-.31.33-.37Zm-.78-.69c.02.05.02.08.04.14-.1.17-.37.24-.46.41-.12-.41.15-.48.43-.54Zm-1.45.51c.02.05.02.08.04.14-.27.07-.54.14-.82.2-.01-.05-.02-.08-.04-.14.27-.07.54-.14.81-.2Zm-2,1.23c.24-.21.34-.38.47-.41.05-.01.08-.02.14-.03.01.05.02.08.04.14-.1.17-.2.34-.17.48-.14.03-.31-.07-.48-.17Zm34.37-4.02q.59-.24.73.03c-.33.2-.53.09-.73-.03Zm1.52-.1c-.13.02-.2-.11-.2-.11-.07-.13.06-.16.19-.18.2.11.46.07.59.05.13-.02.2.11.33.09-.18.46-.59.24-.92.14Zm6.16,2.43c-.13.02-.27.04-.4.05l-.07-.13c.13-.02.19-.17.33-.19,0,0,.13-.02.21.12,0,0-.13.02-.06.15Zm1.81-.09c.21.12.08.13,0,0,0,0-.21-.12-.28-.25.13-.02.27-.03.27-.03.32-.19.8-.1,1.33-.16.03.05.05.08.08.13-.45.2-.85.25-1.39.32Zm7.18-.51c-.13.01-.35-.11-.35-.11q-.13.01-.13.01c-.18.16-.45.19-.71.21-.18.16-.45.19-.66.07-.26.03-.61-.08-.95-.19-.03-.05-.05-.08-.08-.14.05-.15.26-.25.45-.19.56.17,1.23-.27,2.14.07.21.12.39-.04.66-.06.08.13.17.27.17.27-.26.02-.4.04-.53.05Zm15.41-2.4c-.38,0-.88-.23-1.11-.14-.12.05-.8-.41-.98-.13q-.13,0-.25,0s0,0-.13,0c-.13,0-.25,0-.51,0-.05,0-.08,0-.13,0-.25,0-.49-.11-.6-.13-.42-.05-.85-.12-1.11-.11-.51.01-1.02-.03-1.27.04-.1.03-.47-.12-.6-.12-.51.02-.98-.1-1.49-.08-.51.02-1.06.19-1.87-.04-.25.01-.6-.11-.77.05-.05,0-.08,0-.13,0-.34-.12-.59-.15-.73-.09-.08.03-.38.03-.51.03,0,0,0,0-.13,0-.13,0-.3.16-.43.17-.13,0-.38.03-.51.04-.26.02-.56-.24-.73-.09.09.14-.26.02-.39.03q-.13.01-.26.02c-.26.02-.51.04-.64.05-.39.03-.94-.2-1.2-.18-.39.04-.69.21-1.08.25-.13.01-.39-.13-.47-.1-.15.07-.34.13-.65.07-.64-.13-1.24-.01-1.97-.07-.13.01-.6-.06-.6-.08,0,0,.26-.03.39-.04.39-.04.73.06.74-.37.02-.06.03-.09.05-.15.13-.01.47.09.51-.06.26-.03.46.15.55.23.13.13.5.27.55.23.05-.04.18-.16.43-.19,0,0,.03-.02.13-.01.56.06.72.07.73-.36.05-.15.12-.19.17-.16.06.03.16.27.25.41,0,0-.13.01-.26.02.55.23.6-.34.6-.34,0,0-.13.01-.26.02.04-.13,0-.25,0-.38l.43-.37c.09.05.08-.01.16-.02.13-.01.13-.01.13-.01.13-.01.25-.02.51-.04.21.12.25-.02.51-.04.08-.29.71-.34,1.14-.09-.04.15-.17.15-.21.3-.13.01-.04.15-.04.15l.09.14c.25-.02.42-.17.8-.2t-.09-.14c-.13,0-.25.02-.38.03,0-.4-.09-.54-.31-.54h.03s.91.12.91.12c0,0-.02.16.15.27.12.08.14.19.14.25-.04-.01-.07-.01-.07-.01q-.13,0-.17.15.13,0,.34.12c-.05-.08-.03-.12,0-.13l.56.43s-.08-.02-.14-.04c.21.13.3.26.43.25.43.25.72.09.98.08.13,0,.13,0,.25-.02.13,0,.17-.15.25-.01.25-.01.47.11.6.11.22.13.47.12.51-.03-.09-.14-.49-.54-.61-.53q.05.28-.2.29c-.09-.14-.18-.27-.27-.41-.13,0-.16.15-.29.16-.25.01-.38.02-.63.04,0,0,.09.14-.04.14.09.14-.04.14-.17.15-.29-.1-.43-.11-.67-.18.02,0,.42-.03.61-.17.09.03.19.07.26.06-.07-.1-.09-.14-.13-.2.15-.21.66-.39.66-.39.04.05.05.08.09.14.13,0,.25-.01.47.11-.02-.03-.04-.05-.05-.08.2.04.4.05.47-.08.16-.15.69.25.76-.04q-.09-.14-.09-.14s-.13,0-.25.01c0,0,.09.14-.04.14-.1-.06-.17-.08-.24-.1.21-.12.53-.05.53-.05l.81.24s-.03.14.06.28c.13,0,.25-.01.38-.02-.09-.14-.22-.13-.22-.13.02-.09.02-.13,0-.17l.31-.06c-.05.02-.1.04-.15.09t.22.13c.03-.14.16-.15.32-.29l.39.12c-.06,0-.12,0-.17.01l.09.14c.09.14.31.27.44.26.03-.12.08-.2.15-.25l.32.1s-.04,0-.06,0c.47.12.85.67,1.04.39.09.14.06.28.16.41q.13,0,.25,0c.22.13.38,0,.73.12.35.13.5,0,.76-.01,0,0,.22.13.35.13.13,0,.22.14.35.13.38,0,.69,0,.91-.14.14-.09.07-.25.08-.38l.33.05c.05.05.13.12.25.19.04.05.06.08.1.14,0,0-.13,0-.25,0q.1.14.29.41c.15-.14.4-.14.56-.27-.1-.14-.22-.14-.22-.14.13,0,.52.08.6.14.16.12.15.55-.23.54Zm5.47,1.2c.04-.27.17-.26.5.02-.13,0-.25-.01-.5-.02Zm2.14.9c-.23-.14-.25-.01-.25-.01-.36-.15-.61-.16-.86-.17,0,0-.1-.14-.23-.14.13,0,.02-.13.15-.13,0,0,.13,0,.25.01,0,0,.02-.13.36.15.05,0,.08,0,.13,0,.25.01.5.03.76.04q.13,0,.34.28c-.46-.29-.4.11-.63-.03Zm4.2-2.7q.12.01.33.42c-.11-.14-.22-.28-.33-.42Zm.44-1.11c-.12-.01-.24-.03-.36-.04-.11-.14,0-.13,0-.13-.12-.01-.23-.15-.35-.17.05,0,.07,0,.12.01.12.01.24.03.48.05.09.06.14.09.23.15.11.14,0,.13-.13.11Zm.71.34c.11.14.23.16.47.31.11.27-.24-.03-.36-.04-.09-.06-.14-.09-.23-.15.12.01,0-.13.13-.11Zm-.05.89c-.22-.41.13-.11.25-.1.05.06.07.08.11.14-.12-.01-.24-.03-.36-.04Zm.5-.2c-.12-.01-.48-.18-.6-.2l-.11-.14c.24.03.36.04.6.2q.12.01.23.15s-.07,0-.12-.01Zm1.33.04c-.11-.14,0-.13,0-.13,0,0,.12.02.24.03l.12.14c-.12-.02-.24-.03-.36-.05Z"/><path class="cls-1" d="m178.18,305.5c-.07-.13-.13.02-.18.17.07.14-.06.15-.12.31.32.09.52.21.44-.22.13-.02.06-.16-.14-.27Z"/><path class="cls-1" d="m202.73,308.58c.04.05.06.08.09.14q.13,0,.38-.01c-.22-.13-.44-.26-.56-.26.04.05.05.08.09.14Z"/><path class="cls-1" d="m222.4,310.87s.07,0,.12.01c-.11-.14-.35-.29-.46-.43-.05,0-.07,0-.12-.01.11.14.22.28.46.43Z"/><path class="cls-1" d="m223.86,312.57s-.07,0-.12-.01c0,0-.01.13.1.27q-.24-.15-.35-.29c-.01.1.03.26.05.39.19.02.32.03.53.05-.11-.14-.1-.27-.21-.41Z"/><path class="cls-2" d="m88.15,309.39s-.13.03-.15.18c-.07.01-.14.04-.2.06.11,0,.21.04.36-.23Z"/><path class="cls-1" d="m224.86,311.14c0,.13-.02.25-.14.24.12.01.36.17.6.2-.24-.16-.35-.3-.46-.44Z"/><path class="cls-1" d="m224.56,313.15s0,0,.11.14c.25.03.5.05.88.1-.24-.16-.48-.31-.48-.31-.14.11-.26.1-.51.07Z"/><path class="cls-1" d="m224.32,313s.13.01.14-.11q-.24-.15-.47-.31c.11.14.22.28.34.42Z"/><path class="cls-2" d="m87.73,309.62s-.02.01-.03.02c.03,0,.06-.02.09-.03-.02,0-.04,0-.06,0Z"/><path class="cls-1" d="m223.56,313.05s-.01-.09-.02-.13c-.03,0-.06,0-.09,0l.11.14Z"/><path class="cls-1" d="m193.3,304.08c-.16.16-.2.3-.37.46.33.11.5-.04.37-.46Z"/><path class="cls-1" d="m195.38,303.5q-.12,0-.24.02t-.25.02c.21.13.3.26.3.26.12,0,.25-.02.46.11-.09-.14-.17-.27-.05-.28-.08-.05-.13-.08-.21-.13Z"/><path class="cls-1" d="m193.91,303.61c-.66-.23-.98.08-1.56-.01l.08.14c.49-.04.98-.08,1.56.01l-.09-.14Z"/><path class="cls-1" d="m198.87,304.56l-.09-.14c-.25.01-.7-.1-.95-.09.04.05.05.08.09.14.25-.01.49-.03.95.09Z"/><path class="cls-1" d="m195.71,303.62q.09.14.3.26-.05-.28.4-.17s0,0,.12,0c.12,0,.24-.02.37-.02,0,0,.12,0,.24-.01.24-.01.49-.03.76-.18-.12,0-.24.01-.24.01-.61.03-1.22.07-1.71.1-.12,0-.24.02-.24.02Z"/><path class="cls-1" d="m182.91,304.66l-.07-.13c-.3.19-.55.22-.86.41.03.05.04.08.07.13.13-.02.45.08.58.07l-.07-.14c.45.08.23-.32.35-.34Z"/><path class="cls-1" d="m176.19,305.09c-.25.04-.31.2-.57.24l.07.13c.19-.18.44-.22.57-.24.25-.04.58.05.83.01-.03-.05-.04-.08-.07-.13.7.03,1.12-.47,1.91-.01-.07-.13-.01-.29-.01-.29.45.08.61-.38,1.08-.02.13-.02.18-.17.18-.17.25-.04.5-.07.75-.11-.2-.12-.32-.1-.32-.1-1.51.22-3.02.46-4.41.69Z"/><path class="cls-1" d="m190.87,303.73c.33.11.45.1.78.21.02-.06.02-.09.04-.15-.33-.11-.58-.09-.78-.21-.12.01-.04.15-.04.15Z"/><path class="cls-1" d="m181.78,305.83c.07.13.2.12.38-.05-.13.02-.33-.1-.33-.1-.09-.42-.36-.67-.76-.91.05-.15-.02-.29.03-.44-.13.02-.25.04-.18.17q-.11.31.24.69s-.13.02-.25.04c-.05.15-.11.31-.04.44.07.13.27.25.45.08-.13.02-.2-.12-.2-.12.18-.17.31-.19.65.2Z"/><path class="cls-1" d="m184.33,304.32s-.13.02-.33-.1c.28.25.43.52.7.78-.08-.13-.03-.29-.03-.29-.08-.13-.28-.25-.35-.39Z"/><path class="cls-1" d="m183.76,304.98c.05-.15-.05-.57-.32-.82-.08-.13-.2-.12-.2-.12l-.12.02c.07.13.15.27.35.39-.13.02-.25.03-.38.05.07.13.2.12.28.25-.13.02-.18.17-.3.19.2.12.65.2.7.05Z"/><path class="cls-1" d="m221.72,312.5c.25.02.5.04.74.19-.22-.28-.71-.45-.74-.19Z"/><path class="cls-1" d="m194.96,304.66c-.26-.41-.5-.39-.67-.23,0,0,.09.14-.04.14.12,0,.12,0,.25-.02.12,0,.25-.02.42.25-.09-.14.04-.14.04-.14Z"/><path class="cls-1" d="m194.93,304.81c-.12,0-.25.02-.37.03.09.14.3.26.38.4-.05-.28-.13-.41,0-.42Z"/><path class="cls-1" d="m199.02,304.97c-.09-.14.03-.14.16-.15-.34-.12-.58-.11-.83-.1.09.14.18.27.18.27,0,0,.09.14.18.27.09.14.3.26.43.26.03-.14.07-.28.1-.43-.12,0-.21-.13-.21-.13Z"/><path class="cls-1" d="m190.91,304.44q.08.13.08.13s-.07,0-.12.01c-.05,0-.07,0-.12.01,0,0,.08.13.21.12.03.05.05.08.08.13.12-.01.33.11.33.11.13-.01.04-.15-.04-.28q.12-.01.17-.16s0,0,.12-.01c-.33-.11-.62-.37-.87-.35-.21-.12-.33-.11-.54-.23.08.13.16.27.25.41.12-.01.33.11.45.1Z"/><path class="cls-1" d="m172.44,306.18c-.19-.11-.32-.09-.45-.06.32.38.45.36.45.06Z"/><path class="cls-1" d="m201.66,308.35c.03-.14-.18-.27-.4-.4-.25.01-.29.15-.54.17.22.13.43.26.65.39-.13,0-.16.15-.29.15.22.13.34.12.47.12.13,0,.47.12.73.11h.13c.13-.01.25-.02.25-.02.03-.14.16-.15.16-.15-.31-.27-.78-.39-1.03-.38q-.13,0-.13,0Zm.44.26c-.13,0-.16.15-.16.15-.13,0-.22-.13-.22-.13.13,0,.25-.01.16-.15.13,0,.22.13.22.13Z"/><polygon class="cls-1" points="185.18 303.93 185.19 303.93 185.18 303.93 185.18 303.93"/><path class="cls-1" d="m202.41,303.86c-.31-.27-.47-.15-.79-.26-.43-.14-.82-.11-1.18-.1-.24,0-.49.02-.73.03.09.05.13.08.21.13.24-.01.36-.02.61-.02.34.13.6.07.79.25.14.14.34.13.55.26.05,0,.07,0,.12,0-.07-.28-.04-.42.42-.29Z"/><path class="cls-1" d="m206.71,304.09c-.24,0-.36,0-.48,0q.44.27.48,0Z"/><path class="cls-1" d="m198.24,303.61c.3.27.79.24.82.1.12,0,.15-.15.27-.15.12,0,.24-.01.36-.02-.58-.12-.97.04-1.46.07Z"/><path class="cls-1" d="m196.75,304.82c.12,0,.37-.02.49-.03,0,0-.09-.14-.18-.27-.16.15-.28.16-.32.3Z"/><path class="cls-1" d="m202.56,303.72c-.12,0-.15.14-.15.14,0,0,.12,0,.15-.14Z"/><path class="cls-1" d="m222.71,310.13c.58.45.6.19.96.36q-.24-.15-.47-.31l.11.14c-.09-.06-.14-.09-.24-.15-.12-.01-.24-.03-.37-.04Z"/><path class="cls-1" d="m173.53,305.84l.07.13c.13-.02.19-.28.25-.34.1-.08.44-.22.77.16-.26.04-.38.07-.51.09.26.25.52.49.84.58-.06.16,0,.29-.06.45.13-.02.45.07.58.05.2.11.52.2.72.32q-.07-.13-.26-.25.13-.02.19-.18-.13.02-.13.02c-.07-.13-.13-.27-.13-.27.13-.02.19-.18.32-.2-.13.02-.26.04-.26.04-.2-.4-.21-.69-.66-.76.06-.16,0-.29.05-.45-.51.09-.89.15-1.27.22t-.13.02c-.13.02-.38.07-.38.07q-.19.18-.38.07c-.19-.11-.7-.02-.76.14.13-.02.25-.05.25-.05.32.09.57.04.89.13Z"/><path class="cls-1" d="m184.31,304.04s.08-.01.13-.02c0,0,0,0,0,0t-.12.02Z"/><path class="cls-1" d="m195.48,308.6s.13-.01.26-.02c-.34-.12-.43-.25-.47-.53,0,0,.21.12.25-.02.04-.14.17-.16.42-.17-.09-.14-.26-.41-.42-.25-.13.01-.38.03-.51.04.07.11.1.16.17.27q-.21.3.3.69Z"/><path class="cls-1" d="m190.39,308.93s.08.13-.05.15c.13-.01.26-.03.47.09-.03-.05-.05-.08-.08-.13q-.21-.12-.34-.11Z"/><path class="cls-1" d="m169.68,306.84c.08.04.11.07.19.11.2-.18.33-.21.39-.37-.13.02-.26.05-.51.1-.03.06-.04.1-.07.16Z"/><path class="cls-1" d="m197.35,308.6c-.3-.26-.34-.12-.6-.1.21.13.47.11.47.11.3.26.34.12.38-.03q.13,0,.13,0c-.09-.14-.21-.13-.21-.13q-.13,0-.17.15Z"/><path class="cls-1" d="m194.84,308.22c-.08-.14-.3-.26-.3-.26-.13.01-.17.16-.3.17t.21.12s.13-.01.38-.03Z"/><path class="cls-1" d="m184.44,304.02c.25-.03.57.07.74-.09-.08.01-.17.02-.25.03-.1.01-.29.04-.49.06Z"/><path class="cls-1" d="m203.55,308.83q.22.13.35.13c.35.13.73.12.98.11q.13,0,.16-.14c-.47-.13-1.07-.25-1.48-.1Z"/><path class="cls-1" d="m195.05,308.77q.13-.01.26-.02c.13-.01.38-.03.47.1.47.1.55-.18.81-.2t-.09-.14s-.04.14-.13,0c-.13,0-.38.03-.42.17-.13,0-.34-.11-.47-.1-.26.02-.38.03-.43.18Z"/><path class="cls-1" d="m193.94,308.73c.08.14.21.12.21.12.34.11.51-.05.9-.08-.08-.14-.42-.25-.55-.24-.26.02-.3.17-.56.19Z"/><path class="cls-1" d="m69.07,250.05c7.27,10.61,18.07,16.56,32.4,17.87,15.19.38,29.47-8.93,42.83-27.93,12.14-16.97,22.07-39.86,29.79-68.68.59-2.44.25-4.68-1.03-6.7-1.16-2.03-2.91-3.4-5.25-4.12-2.45-.59-4.74-.24-6.87,1.05-2.03,1.16-3.4,2.97-4.11,5.42-7.13,26.49-16.12,47.43-26.98,62.84-9.73,13.62-18.83,20.39-27.31,20.28-8.42-.71-14.74-4.19-18.95-10.45-5.6-8.27-8.82-19.46-9.64-33.57-1.37-19.55-.1-40.2,3.8-61.95,5.95-31.02,12.07-53.89,18.34-68.6,7.21-17.31,15.24-31.84,24.08-43.58,6.56-8.29,12.9-12.93,19.01-13.9,2.84-.28,5.05-.15,6.66.4,2.37,1.08,4.07,3.11,5.09,6.11,1.37,4.16,1.73,8.95,1.09,14.39-1.01,8.93-3.8,16.79-8.37,23.57-1.47,2.06-2.02,4.26-1.66,6.61.46,2.22,1.73,4.12,3.79,5.7,2.05,1.47,4.25,1.96,6.59,1.49,2.35-.35,4.26-1.56,5.72-3.62,6.35-9.23,10.23-19.88,11.64-31.95.99-7.97.31-15.3-2.03-21.99-2.58-7.86-7.61-13.38-15.09-16.56-4.38-2.07-9.58-2.67-15.57-1.83-11.29,1.61-21.59,8.43-30.88,20.46-9.77,13.15-18.62,29.07-26.52,47.76-6.75,15.95-13.21,40.11-19.39,72.46-4.24,23.1-5.72,45.26-4.42,66.48,1.25,17.18,5.65,31.35,13.22,42.52Zm46.96,9.6l-.16.2c-.16-.34-.17-.52-.05-.53.25.09.38.2.39.32l-.18.02Zm7.85-7.41c-.24.02-.45.02-.63-.02-.18-.05-.34-.12-.47-.22-.02-.24-.04-.42-.05-.53-.01-.12.04-.18.16-.2.12-.01.3,0,.54.04.24.03.43.16.58.39.51.3.47.49-.12.55Zm16.37-15.25c-.12.01-.21.02-.27.03-.06,0-.09-.05-.11-.16-.25-.1-.41-.23-.49-.4-.08-.17-.13-.38-.15-.61.1-.13.22-.2.34-.21.26.21.46.43.6.65.13.11.2.22.21.34.01.12-.04.24-.14.37Zm4.52-6.72c-.37-.08-.62-.23-.76-.46-.14-.22-.16-.4-.05-.53.12-.01.27,0,.45.04.18.04.4.11.65.2-.08.37-.18.62-.28.74Zm3.18-12.85c-.07.49-.25.51-.53.05-.13-.1-.2-.25-.22-.43-.02-.17.03-.33.13-.46l.16-.19c.24-.02.39.08.48.31.08.23.08.47-.02.72Zm4.23-2.39c-.35.04-.6-.06-.74-.28-.26-.21-.27-.33-.04-.35.35-.03.66.06.92.27.14.22.09.35-.14.37Zm.28-2.54c-.12.01-.24-.03-.37-.14-.13-.1-.21-.28-.23-.51-.01-.12-.02-.2-.03-.26,0-.06.05-.1.17-.11.12-.01.25.1.39.32.49.19.75.4.78.64-.24.02-.47.05-.71.07Zm3.24-10.52c-.25-.09-.44-.19-.57-.3-.16-.34-.11-.53.12-.55.12-.01.24,0,.36.05.12.05.2.19.22.43.01.12-.04.24-.14.37Zm.46,6.4c-.01-.12,0-.24.05-.36,0-.03.03-.05.05-.08,0,.06,0,.13-.04.16-.06.07-.07.16-.06.27Zm1.72-4.29l-.16.19c-.01-.12-.02-.2-.03-.26,0-.06.11-.1.34-.12-.12.01-.17.08-.16.2Zm.37-7.02c-.24.02-.49-.13-.76-.46-.13-.11-.32-.18-.56-.21-.24-.04-.48-.04-.72-.02-.24.02-.45-.01-.64-.11-.19-.1-.29-.21-.3-.33-.01-.12.06-.24.23-.38.17-.13.36-.22.6-.24.36-.04.6,0,.73.11.13.11.2.22.21.34.01.12.08.2.2.25.12.05.31.12.56.21.47-.05.72.05.74.29.04.35-.07.54-.3.56Zm.12-5.92c-.38-.2-.67-.41-.87-.63-.2-.22-.31-.39-.32-.51-.01-.12.01-.18.07-.19.06,0,.09.05.11.17.24-.02.61.09,1.11.34.5.25.98.53,1.43.84.45.32.68.53.69.65.07.71-.67.49-2.21-.67Zm3.07,3.81c.01.12-.04.24-.14.37-.25-.09-.38-.2-.39-.32-.01-.12,0-.24.05-.36.05-.12.13-.19.25-.2.12-.01.24.04.37.14-.11.13-.15.26-.14.37Zm.8-3.66c-.16.13-.56.06-1.19-.24-.25-.09-.44-.25-.59-.48-.14-.22-.16-.4-.05-.53l.18-.02c.12-.01.24.01.36.06.12.05.31.12.56.21l.19.16c.52.43.7.71.53.84Zm.23-3.96c-.24.02-.4-.08-.48-.31-.09-.23-.14-.46-.16-.7-.01-.12-.02-.23-.04-.35-.01-.12.04-.18.16-.2-.02-.23.1-.19.37.14.49.19.73.46.71.82-.03.36-.21.56-.57.59Zm.62-4.54c-.12.01-.26-.15-.41-.5-.12.01-.18-.04-.19-.16-.01-.12.1-.19.34-.21.12-.01.25.09.39.32.02.24.04.39.05.44,0,.06-.05.09-.17.11Zm-.43-6.04c.11-.13.27-.27.5-.41.12-.01.21.01.28.06.06.06.16.14.29.24.02.24-.02.42-.12.55-.11.13-.22.2-.34.21-.12.01-.24-.03-.37-.14-.13-.1-.21-.27-.23-.51Zm1.25,2.65c-.06.07-.11.13-.16.19-.06.07-.14.1-.26.11-.12.01-.24-.03-.37-.14-.13-.1-.2-.22-.21-.33-.01-.12.03-.24.14-.37.11-.13.22-.2.34-.21.12-.01.24.04.37.14.13.11.2.22.21.34.01.12,0,.21-.06.27Zm3.22-12.49c.04-.18.12-.28.24-.29.26.21.4.44.43.67.02.24.05.53.09.89-.12.01-.25-.07-.38-.23-.14-.16-.28-.36-.42-.58-.01-.12,0-.27.04-.45Zm-1.09,6.11c.52.43.92.83,1.2,1.22.28.39.36.59.24.6-.11.13-.19.2-.25.21-.06,0-.1-.11-.12-.35-.01-.12-.11-.23-.3-.33-.19-.1-.4-.13-.64-.11-.59.06-.91-.15-.96-.62-.01-.12-.06-.32-.15-.61-.09-.29-.21-.54-.35-.77l-.02-.18c.1-.13.55.18,1.35.94Zm-1.18,11.39l.02.18c-.11.13-.15.25-.14.37-.16-.34-.17-.52-.05-.53l.18-.02Zm-1.02-15.47c.12-.01.24,0,.36.06.12.05.19.13.2.25l.18-.02c.02.24.04.38.04.44,0,.06-.05.09-.17.11-.24.02-.49-.13-.76-.46-.12.01-.18-.04-.2-.16-.01-.11.1-.19.34-.21Zm-.4,5.86c.08.17.06.32-.05.45-.11.13-.23.14-.35.03-.13-.11-.33-.26-.58-.48-.13-.1-.23-.24-.31-.42-.08-.17-.12-.31-.13-.43l.16-.2.02.18c.12-.01.37.08.74.28.26.21.43.41.51.58Zm-1.34-5.32l.18-.02c.15.34.11.53-.12.55-.12.01-.24,0-.36-.05-.13-.05-.19-.13-.2-.25l-.02-.18-.02-.18c.24-.02.42.02.55.12Zm-1.58,5.71c.23-.02.42.02.55.12.13.11.2.22.21.34.01.12,0,.21-.06.27-.06.07-.14.1-.26.12-.25-.09-.38-.2-.39-.32-.13-.11-.15-.28-.05-.53Zm-.53,5.42c.1-.13.22-.2.34-.21.24-.02.45.02.64.11.19.1.38.2.57.3.19.1.29.21.3.33.06.59-.47.65-1.6.16-.13-.11-.23-.21-.3-.33-.07-.11-.05-.23.05-.36Zm-1.45,3.37l.18-.02c.38.2.69.35.94.44.53.55.74.88.64,1.01-.11.13-.53.05-1.28-.23-.14-.22-.28-.42-.42-.59-.14-.16-.21-.31-.22-.43l.16-.19Zm-2.09,2.36l.16-.19.16-.2.02.18c.24-.02.42-.01.54.03.12.05.19.13.2.25.01.12-.04.24-.14.37-.11.13-.28.21-.51.23-.12.01-.21,0-.27-.06-.07-.05-.16-.13-.29-.24.11-.13.15-.25.14-.37Zm-1.79,5.37c.09-.25.14-.43.12-.55.35-.03.72.02,1.09.16.37.14.71.29,1.03.43.31.15.48.28.49.4.01.12-.04.21-.15.28-.11.07-.23.11-.34.12-.12.01-.33,0-.63-.03-.3-.03-.63-.09-1-.17-.12.01-.24.02-.35.03-.25-.09-.43-.13-.55-.12.11-.13.21-.32.3-.57Zm-.79,6.35l.16-.2.02.18c.12-.01.43.13.94.44.25.09.46.37.62.83-.11.13-.25.18-.44.13-.18-.04-.41-.16-.66-.38-.26-.21-.46-.4-.59-.57-.14-.17-.15-.31-.04-.44Zm-1.87,9.85c.12-.01.24,0,.36.06.12.05.25.12.38.23.38.2.66.38.86.54.19.16.3.3.31.42.01.12-.1.22-.33.3-.23.08-.47.11-.71.07-.24-.03-.43-.11-.56-.21-.13-.1-.23-.24-.31-.42-.08-.17-.12-.32-.13-.43-.02-.24-.04-.39-.04-.44,0-.06.05-.1.17-.11Zm-1.01-6.52c.1-.13.15-.25.14-.37.14.23.22.4.23.51.14.22.22.46.25.69-.24.02-.39-.02-.46-.13-.07-.11-.17-.22-.3-.33-.01-.11.03-.24.14-.37Zm-3.63,8.42l-.16.19c-.01-.12.04-.18.16-.19Zm-.21,3.24c.31-.51.58-.71.83-.62.35-.04.55.12.59.48.02.24-.05.4-.22.47-.17.08-.38.13-.61.15-.47.05-.71.01-.73-.11-.01-.11.03-.24.14-.37Zm-2.1,1.37c.05-.06.13-.16.24-.29-.01-.12.04-.18.16-.2l.02.18c.05.48-.11.73-.46.76l-.02-.18c-.01-.12,0-.21.06-.28Zm-1.47,3.19c.03-.3.1-.46.22-.47.12-.01.31.09.57.3.04.35.13.76.3,1.22.15.34.15.58-.02.72-.17.14-.44.1-.81-.1-.14-.22-.23-.48-.26-.78-.03-.29-.03-.59,0-.9Zm-.33,4.78c-.01-.12.07-.16.26-.12.19.04.4.17.67.38.76.4.84.63.25.69-.24.02-.48-.01-.73-.11-.25-.09-.38-.2-.39-.32-.13-.1-.2-.22-.21-.33-.01-.12.04-.18.16-.2Zm-.9,1.7l.37.14c.13.1.23.21.3.32.07.11.11.23.13.35-.1.25-.27.27-.53.05-.12.01-.22-.07-.29-.24-.08-.17-.12-.32-.13-.43l.16-.2Zm-.28,2.53c.35-.04.69.05,1.01.26.32.21.55.42.69.65.14.23.16.4.05.53-.53.65-1.08.53-1.65-.37-.43-.67-.46-1.03-.11-1.06Zm-1.76,3.85c.27.27.16.43-.31.48-.59.06-1.14,0-1.63-.2-.37-.08-.59-.24-.67-.47-.08-.23.05-.36.41-.4l-.02-.18c.35-.04.6,0,.73.11.73.17,1.23.38,1.5.66Zm-2.76-2.58c.11-.07.28-.12.52-.14.25.09.38.2.39.32.01.12,0,.21-.06.27-.05.07-.13.16-.24.29-.24.02-.42-.02-.55-.12-.13-.1-.2-.22-.21-.34-.01-.12.04-.21.15-.28Zm-.75,10.36c.12-.01.27.06.47.22.19.16.3.35.33.59.02.23-.08.36-.32.39-.24.02-.49-.07-.74-.28-.13-.11-.2-.22-.21-.34-.01-.12-.02-.21-.03-.26,0-.06.05-.1.17-.11-.01-.12,0-.18.07-.18.06,0,.15-.02.27-.03Zm-.66-8.35c.13.11.17.22.12.34-.05.13-.13.25-.23.38-.33.27-.49.47-.48.59.01.12.14.22.39.32.26.22.43.41.51.58.08.17.06.32-.04.45-.07.49-.32.39-.74-.28-.01-.11-.08-.17-.19-.16-.14-.22-.28-.39-.41-.5.31-.51.67-1.08,1.08-1.72Zm-1.72,4.29c.23-.02.37.14.41.5.01.12.02.21.03.26,0,.06-.05.09-.17.11-.25-.09-.44-.19-.57-.3-.15-.34-.05-.53.3-.57Zm-1.38,5.87c.12-.01.21,0,.27.06.07.06.16.13.29.24.11-.01.22.09.3.33.08.23.08.47-.02.72.01.12.06.32.15.61.09.29.2.48.33.59.27.33.29.51.05.53-.12.01-.31-.09-.57-.3-.26-.21-.48-.55-.64-1.01-.59-1.13-.65-1.72-.18-1.77Zm-.82-4.57c.11-.12.15-.25.14-.37.12-.01.18.04.2.16.01.12,0,.24-.05.36-.05.12-.13.19-.25.2l-.18.02c.1-.13.15-.25.14-.37Zm-3.33,4.27c-.01-.12.04-.18.16-.19l.16-.2.35-.04c.36-.03.69.02,1,.17.31.15.6.33.86.54,1.05.97.65,1.12-1.2.48-.37-.08-.71-.2-1.02-.35-.31-.15-.48-.28-.49-.4l.18-.02Zm-.07,4.66c.23-.02.42.05.56.21.13.17.27.33.41.5.13.16.15.31.04.44-.12.01-.24-.04-.37-.14-.13-.11-.33-.27-.58-.48-.39-.32-.41-.5-.05-.53Zm-.3,4.15c.23-.02.51,0,.82.1.31.09.59.3.87.63-.11.13-.27.27-.5.41-.11.13-.22.26-.32.39-.77-.52-1.19-.87-1.27-1.04-.08-.17.06-.33.4-.49Zm-2.68-3.49c-.01-.12,0-.21.06-.27.05-.07.11-.13.16-.2.05-.07.14-.1.26-.11.12-.01.21.04.28.15.07.11.16.16.28.15l.02.18c.13.11.14.22.04.35-.11.13-.28.21-.51.23-.24.02-.42-.02-.55-.13-.13-.11-.14-.22-.04-.35Zm-1.88.01c.05-.12.18-.26.41-.4.14.22.19.4.14.52-.05.12-.07.24-.05.36-.24.02-.42.01-.54-.03-.13-.05-.25-.06-.36-.05.22-.14.36-.28.41-.4Zm-1.65,2.31l.18-.02c.24-.02.51.04.82.19.31.15.6.3.85.45.25.15.39.34.42.59-.27.86-.87.86-1.79,0-.42-.56-.57-.96-.48-1.21Zm-1.48,8.38c.24-.02.48.07.74.28.13.1.25.15.37.14-.11.13-.22.26-.32.39-.12.01-.17.07-.16.19-.26-.21-.46-.37-.58-.48-.13-.11-.2-.22-.21-.34-.01-.12.04-.18.16-.19Zm-2.4-6.03l.18-.02c.37.08.65.23.85.45.2.22.25.39.14.52-.12.01-.3-.06-.56-.21-.26-.15-.51-.28-.75-.37l-.02-.18.16-.2Zm-2.67,1.88c.22-.14.39-.28.5-.41.48.07.98.26,1.49.57.51.31.95.59,1.34.85.39.26.52.45.42.58-.23.14-1.02-.01-2.37-.48-.88-.39-1.5-.69-1.88-.89.22-.14.4-.22.51-.23Zm-.42,5.59c.19.1.24.27.14.52-.21.26-.53.38-.95.36-.42-.02-.76-.13-1.02-.34-.29-.45-.13-.7.46-.76l.18-.02c.12-.01.24-.02.35-.03.36.08.64.17.83.27Zm-1.22-2.38c.15.34.17.55.06.62-.11.07-.35.06-.72-.02-.27-.33-.42-.61-.44-.85-.02-.24.08-.37.32-.39.35-.04.61.18.78.64Zm-1.24-1.66l.16-.19c.26.21.21.34-.14.37-.12.01-.24-.04-.37-.14.12-.01.23-.02.35-.03Zm-1.43,5.33c.24-.02.57.06,1.01.26.44.19.82.39,1.14.6.32.2.49.43.51.67.05.47-.11.7-.47.67-.36-.03-.87-.3-1.52-.83-.26-.21-.46-.43-.6-.66-.14-.22-.22-.4-.23-.51l-.02-.18.18-.02Zm-2.22-2.46l.16-.2c.25.09.5.22.75.37.25.15.39.34.42.59.02.23-.05.39-.22.47-.17.08-.35.06-.54-.03-.19-.1-.36-.26-.5-.49-.26-.21-.29-.45-.07-.71Zm-1.47,4.98l-.02-.18c.12-.01.39.26.8.81.13.1.2.22.21.33l.19.16c-.24.02-.38.04-.44.05-.06,0-.14.07-.25.2-.01-.12-.02-.24-.04-.35-.12.01-.18-.04-.19-.16-.13-.11-.2-.22-.21-.34-.15-.34-.17-.52-.05-.53Zm-2.64-4.92l-.02-.18c.24-.02.45.04.65.2.19.16.39.35.59.57.2.22.25.39.14.53-.41.64-.84.56-1.28-.23-.14-.22-.22-.42-.24-.6-.02-.18.03-.27.15-.28Zm-.83,4.2c.12-.01.24,0,.36.05.12.05.19.13.2.25.38.2.6.38.68.56.08.17-.05.39-.38.67-.21.26-.38.4-.5.41-.12.01-.31-.09-.57-.3-.34-1.04-.28-1.58.2-1.63Zm46.36-188.81l.18-.02-.02-.18c.48.07.78.1.9.09-.47.05-.83.08-1.06.11Zm1.49-3.01c-.12.01-.24.02-.35.04-.12.01-.21,0-.27-.06-.07-.05-.11-.19-.13-.43l-.02-.18c.11-.13.22-.14.35-.04.12-.01.24.04.37.14.13.11.2.22.21.34.01.12-.04.18-.16.19Zm4.28-7.23c-.5-.19-.84-.39-1.05-.61-.2-.22-.19-.34.05-.36.12-.01.24-.02.35-.04.12-.01.3.03.55.13.13.11.25.15.37.14.38.2.7.41.96.62.26.21.4.38.41.5.05.48-.5.35-1.65-.37Zm1.84-1.26c-.12.01-.21-.04-.28-.15-.07-.11-.11-.22-.12-.34-.13-.1-.2-.19-.2-.25,0-.06.05-.09.17-.11.23-.02.39,0,.45.04.06.06.1.14.11.26.01.12.02.24.04.35.01.12-.04.18-.16.2Zm1.07-8.97c-.1.19-.34.19-.72-.02-.26-.21-.46-.43-.6-.66l.16-.19.18-.02c.12-.01.3.03.55.12l.18-.02c.27.33.36.59.26.78Zm3.33-18.5c-.12.01-.21-.04-.28-.15-.07-.11-.11-.23-.12-.34-.01-.12,0-.24.05-.36.05-.12.13-.19.25-.2.12-.01.24.04.37.14.13.11.2.22.21.34.01.12-.04.25-.14.37-.11.13-.22.2-.34.21Zm1.49,2.36c-.12.01-.3.03-.53.05-.59.06-.66,0-.2-.16.12-.01.24-.02.35-.03l-.02-.17c.12-.01.18.04.19.16.12-.01.24-.02.35-.04.01.12-.04.18-.16.2Zm.62-4.54c.02.24-.05.39-.22.47-.17.08-.41.1-.71.07-.3-.03-.52-.15-.66-.38-.04-.35,0-.6.11-.73.12-.01.29-.03.53-.05.24-.02.45.02.64.11.19.1.3.27.32.51Zm-2.57-4.22c.11-.13.22-.2.34-.21.24-.02.51.01.82.1.3.09.56.24.76.46.2.22.25.4.14.53-.08.36-.28.53-.58.5-.3-.03-.71-.2-1.21-.51-.51-.31-.77-.49-.77-.55,0-.06.16-.17.51-.32Zm-.42,13.64c.11-.13.22-.2.34-.21.26.21.4.38.41.5.01.12,0,.21-.06.27-.05.07-.13.16-.24.29-.12.01-.24-.03-.37-.14-.13-.11-.2-.22-.21-.34-.01-.12.04-.24.14-.37Zm.09,11.62c.24-.02.37.14.41.5.02.24-.08.37-.32.39-.35.04-.54-.06-.57-.3-.04-.35.13-.55.48-.59Zm-1.19-15.45c.35-.03.54.07.57.3.02.24-.02.42-.12.55-.12.01-.18,0-.19-.07,0-.06-.08-.14-.2-.25l-.19-.16c-.14-.22-.1-.35.14-.37Zm-1.29,4.96c.01.12-.04.25-.14.37-.12.01-.24-.03-.37-.14-.01-.12-.08-.17-.2-.16-.15-.34-.11-.52.12-.55.12-.01.24.03.37.14.13.11.2.22.21.33Zm-.52-7.82c-.05.12-.13.25-.23.38-.11.13-.22.17-.34.13-.13-.05-.25-.12-.38-.23-.01-.12-.02-.23-.04-.35-.01-.11.04-.24.14-.37.12-.01.23-.02.35-.04.12-.01.2-.02.26-.03.06,0,.1.05.11.17.13.11.17.22.12.35Zm-.92-2.95c.11-.13.22-.2.34-.21.12-.01.21.01.28.06.06.05.13.1.19.16.06.06.1.14.12.26.01.12-.04.24-.14.37-.11.13-.22.2-.34.21-.12.01-.24-.03-.37-.14-.13-.1-.2-.22-.21-.34-.01-.12.03-.24.14-.37Zm-.54,17.77c.13.11.23.22.3.33.07.11.05.24-.05.36-.24.02-.42.04-.53.05-.27-.33-.42-.61-.44-.85-.01-.12.04-.18.16-.2.12-.01.24.04.37.14.12-.01.18.04.19.16Zm-.31-20.91l-.18.02c-.01-.11-.02-.23-.04-.35l.21.34Zm-.15,18.09c.01.12-.04.21-.15.28-.11.07-.23.11-.34.13-.02-.24,0-.54.09-.9l-.02-.18c.13.11.23.22.3.33.07.11.11.23.12.34Zm-.23-34.34c-.49-.07-1.05-.37-1.7-.9-.25-.09-.44-.25-.58-.48-.14-.22-.28-.39-.41-.5,1.01.61,1.91,1.24,2.69,1.88Zm-1.68,4.64c.01.12,0,.21-.06.27-.05.07-.14.11-.26.12-.25-.09-.38-.2-.39-.32-.13-.1-.2-.19-.2-.25,0-.06.04-.15.15-.28.24-.02.42.02.55.12.13.11.2.22.21.34Zm-.87,37.67c-.01-.11.04-.18.16-.19l.18-.02c.01.12.05.17.11.17.06,0,.09.05.11.17.92.86.95,1.16.09.89-.12.01-.24-.03-.37-.14-.13-.1-.2-.22-.21-.34-.01-.12-.08-.17-.2-.16.11-.13.15-.25.14-.37Zm-1.45,12.32c.47-.05.73.11.76.46.07.71-.47.7-1.61-.02-.63-.29-.78-.64-.46-1.03.12-.01.29-.03.53-.05.01.12.02.24.04.35.01.12.08.2.2.25.12.05.3.06.54.04Zm-8.3-52.32c-.12.01-.18-.04-.19-.16.12-.01.2-.02.27-.03.06,0,.09.02.1.08,0,.06.07.08.19.07-.12.01-.24.02-.35.04Zm.9-7.07c.12-.01.3.03.55.12.25.09.5.25.76.46.13.11.32.21.57.3.25.1.43.13.55.12.24-.02.42.02.55.12.13.11.2.22.21.34.08.83-.65.66-2.2-.5-.39-.32-.68-.56-.88-.72-.19-.16-.23-.24-.12-.25Zm-3.19,3.9c.09-.25.44-.4,1.03-.46l.18-.02c.12-.01.3.03.55.12.25.1.5.25.76.46.26.21.36.35.31.42-.05.06-.38.12-.96.18-.24.02-.51.02-.81,0-.3-.03-.57-.03-.81-.01-.14-.22-.25-.36-.31-.42-.07-.05-.05-.14.06-.27Zm-24.13,14.59c-.24.02-.49-.07-.74-.28-.27-.33-.23-.51.12-.55.24-.02.49.13.76.46.26.22.21.34-.14.37Zm9.35-6.66l.16-.19c.01.12-.04.18-.16.19Zm11.97-5.5c-.01-.11-.04-.35-.07-.71l-.04-.35c.12-.01.18.04.19.16.27.33.24.63-.09.9Zm.03-6.8c.12-.01.24-.02.35-.04.37.08.58.18.66.29.07.11-.07.19-.43.22-.12.01-.24-.04-.37-.14-.13-.1-.26-.21-.39-.32l-.02-.18.19.16Zm-3.7,5.92l.18-.02.19.16c.25.1.46.13.64.11.18-.02.32-.03.44-.04.15.34.24.63.27.87.05.47-.11.7-.47.67-.36-.02-.69-.32-.98-.89-.13-.1-.2-.22-.21-.33-.14-.22-.21-.36-.22-.43,0-.06.05-.1.17-.11Zm-2.78,2.61c-.12.01-.27-.03-.46-.13-.19-.1-.29-.21-.3-.33-.13-.1-.2-.22-.21-.33-.01-.12-.02-.21-.03-.27,0-.06.05-.09.17-.11.25.09.5.25.76.46.4.44.43.68.07.71Zm-.94-4.02c.12-.01.27.04.46.13.19.1.29.21.3.33.13.11.14.2.03.27-.11.07-.23.11-.35.12-.47.05-.72-.04-.74-.28-.04-.35.06-.54.3-.57Zm-.39,5.05l.2.16c-.12.01-.23.05-.35.12-.11.07-.22.17-.33.3.08-.36.24-.56.48-.59Zm-3.46,1.15c.02.18-.03.33-.13.46-.12.01-.24-.03-.37-.14-.13-.11-.2-.22-.21-.34-.29-.45-.31-.69-.07-.71.24-.02.42.05.56.21.13.16.21.34.23.51Zm-1.73-4.75c.12-.01.27.03.46.13.19.1.29.21.3.33.13.11.2.22.21.33.01.12-.1.19-.34.21-.12.01-.24-.04-.37-.14-.13-.1-.26-.21-.39-.32-.01-.12-.02-.23-.04-.35-.01-.12.04-.18.16-.19Zm-1.96,3.6l.18-.02c.13.11.27.27.41.5-.11.13-.22.2-.34.21-.35.03-.54-.06-.57-.3-.01-.11-.02-.23-.04-.35.12-.01.24-.02.35-.04Zm-1.74,2.32c.46-.16,1.2.06,2.22.67.64.41.81.67.52.75-.29.09-.87-.06-1.75-.45-.73-.16-1.12-.43-1.15-.78-.01-.11.04-.18.16-.19Zm-2.11.39c.38.2.58.42.6.66.01.12-.04.24-.14.37-.11.13-.22.2-.34.21-.12.01-.22-.07-.29-.24-.08-.17-.12-.32-.13-.44-.02-.23.01-.48.11-.73.12-.01.18.04.2.16Zm-.94-1.34c.05-.12.19-.2.43-.22.12-.01.21.04.28.15.07.11.11.23.12.34.02.24-.08.37-.32.39-.35.04-.54-.06-.57-.3-.01-.12,0-.24.05-.36Zm.04,8.41l-.16.19-.02-.18.18-.02Zm-2.5-7.09c.12-.01.3.03.55.13.25.1.44.25.58.48.26.21.37.38.32.51-.05.13-.25.2-.6.24-.6-.06-.92-.27-.96-.62-.02-.23.01-.48.11-.73Zm-3.32,11.43l.18-.02c.24-.02.43.08.57.3.3.57.36.92.2,1.05-.17.14-.44.04-.83-.27-.14-.22-.25-.43-.33-.59-.08-.17,0-.33.22-.47Zm-5.49,11.29l-.2-.16c-.01-.11-.03-.29-.05-.53l.18-.02.18-.02c.13.11.19.1.18-.02-.08.37-.18.62-.28.74Zm4.54-8.24c.12.05.22.1.28.15.06.05.1.14.12.25.01.12-.07.22-.24.29-.17.08-.32.12-.43.13-.47.05-.72-.05-.74-.28-.01-.11.04-.24.14-.37.11-.13.28-.2.51-.23.12-.01.24,0,.36.05Zm-1.73-8.33c.11-.13.28-.21.51-.23.12-.01.24,0,.36.05.12.05.25.12.38.23.02.24-.02.43-.12.55-.11.13-.22.2-.34.21-.12.01-.24-.04-.37-.14-.13-.1-.27-.27-.41-.5-.12.01-.12-.05-.02-.18Zm-.27,1.73c.2.16.4.38.6.65.21.28.26.49.15.61-.09.25-.4.16-.92-.26-.31-.69-.41-1.09-.3-1.22.12-.01.27.06.47.22Zm-3.17,6.76c.23-.08.58-.15,1.05-.2.36-.03.71-.04,1.07-.02.36.03.6.09.73.2.14.22.07.38-.22.47-.29.09-.61.15-.97.19-.47.05-.89.06-1.25.04-.36-.02-.61-.14-.75-.37-.01-.12.1-.22.33-.3Zm-46.15,172.15c-.06.07-.14.1-.26.11s-.18-.04-.19-.16l-.18.02c-.01-.12-.02-.23-.04-.35-.01-.12-.02-.24-.04-.35l.18-.02.18-.02c.13.11.26.27.41.5.01.12-.01.21-.06.28Zm1.57,12.99c-.24.02-.54-.06-.92-.26-.04-.35-.07-.65-.09-.89.47-.05.84.07,1.11.33.27.27.23.55-.1.81Zm.39-3.26c-.23.14-.82.14-1.79,0-.04-.36-.07-.65-.09-.89.12-.01.24.04.37.14.12-.01.29-.03.53-.05.87.39,1.2.66.97.8Zm-1.49-5.04c.05-.12.19-.2.43-.22.12-.01.24,0,.36.05.12.05.25.13.38.23.02.24-.08.43-.3.57-.35.03-.61-.12-.76-.46-.12.01-.16-.04-.11-.17Zm1.02-6.73c-.35.04-.9-.02-1.63-.19-.14-.22-.13-.4.03-.54.17-.13.49-.17.97-.1,1.06-.11,1.96-.11,2.69,0,.73.1,1.11.34,1.14.69.04.35-.09.58-.38.66-.29.09-.57-.03-.84-.36-.13-.1-.38-.17-.74-.2-.36-.02-.78-.01-1.25.03Zm6.17-61.55c.38.26.7.5.97.71.26.21.33.32.21.33-.12.01-.33-.06-.65-.2-.31-.15-.72-.31-1.21-.51-1.51-.8-1.91-1.24-1.21-1.31.12-.01.37.08.74.28.38.2.76.44,1.14.69Zm.04-6.72c.37.08.62.24.76.46.01.12.02.21.03.27,0,.06-.05.09-.17.11-.35.04-.66-.05-.92-.27-.15-.34-.05-.53.3-.57Zm2.34-3.46c.35-.03.55.12.58.48.02.24-.14.37-.5.41-.24.02-.37-.08-.39-.32-.04-.35.06-.54.3-.57Zm-.47-2.01c-.07-.05.01-.15.24-.3.12-.01.29-.03.53-.05.12-.01.24.04.37.14.13.11.11.17-.07.19-.18.02-.39.04-.62.06-.24.02-.39.01-.45-.04Zm.33,18.49c.12-.01.24-.02.35-.04.12-.01.23-.02.35-.03-.11.13-.15.25-.14.37.01.12.02.24.04.36-.99-.38-1.2-.6-.6-.66Zm.81,81.57s.1,0,.14.03c.06.05.16.07.27.06.12-.01.18.04.2.16.01.12.02.21.03.26,0,.06.07.14.2.25-.12.01-.24.02-.35.03-.12.01-.24-.04-.37-.14-.13-.11-.2-.22-.21-.34l-.02-.18.12-.14Zm-2.75-65.27l.18-.02c.01.12.03.3.05.53.02.24.04.42.05.53-.6-.06-1.16-.3-1.68-.73-.39-.32-.6-.6-.62-.83-.02-.23.02-.36.14-.37.24-.02.61.12,1.12.43.26.21.51.37.76.46Zm-.72-17.83c-.01-.12.06-.24.23-.38.17-.14.31-.21.43-.22.24-.02.45.02.64.12.19.1.29.21.3.32.01.12-.07.25-.23.38-.16.14-.37.22-.6.24-.25-.09-.44-.16-.56-.21-.13-.05-.19-.13-.2-.25Zm.54,23.21c-.13-.1-.26-.15-.37-.14-.12.01-.24.02-.35.04-.59.06-.87-.06-.84-.36.03-.3.39-.55,1.09-.74l.5-.05c-.05.42-.06.84-.02,1.26Zm-2.01-9.28c-.12.01-.25-.09-.39-.32-.27-.33-.29-.51-.05-.53.35-.04.55.12.58.48.01.12.02.2.03.26,0,.06-.05.1-.17.11Zm.2,10.9c.11-.13.18-.23.24-.29.05-.06.14-.1.26-.11l.18-.02c.35-.03.67.11.94.44.01.12-.03.3-.12.55.02.24-.01.48-.11.73l-.19-.16c-.13-.11-.32-.21-.57-.3-.26-.21-.46-.4-.59-.57-.14-.16-.15-.25-.03-.26Zm1.12,5.79c.02.24.04.42.05.53l.04.35c-.36.04-.85-.09-1.47-.39-1.62-.67-1.72-1.08-.3-1.22.84.04,1.4.28,1.68.73Zm-.49,20.09c.02.24.04.42.05.53l-.02-.18c-.13-.1-.38-.26-.76-.46.35-.04.6,0,.73.1Zm-.21-3.91c-.01-.12.03-.24.14-.37l.2.16c.01.12.02.24.04.35.01.12-.04.18-.16.19l-.02-.18-.19-.16Zm.25,6.06l.18-.02c.04.35.07.65.09.89l-.18.02c-.35.04-.54-.06-.57-.3-.04-.36.12-.55.48-.59Zm-.38-14.46c.24-.02.38-.04.44-.04.06,0,.1.05.11.16l.02.18c-.2.38-.42.58-.66.61-.12.01-.24,0-.36-.05-.12-.05-.2-.19-.22-.43.09-.24.32-.39.67-.42Zm-.61,20.64c.27.33.67.71,1.19,1.13.01.12-.07.18-.25.2-.18.02-.39-.02-.64-.11-.25-.09-.5-.25-.76-.46-.39-.32-.63-.62-.72-.91-.09-.29-.08-.44.04-.45.12-.01.27.06.47.22.2.16.42.29.67.38Zm-.53,10.79c.24-.02.37.08.39.32.02.24-.08.36-.32.39-.35.04-.54-.06-.57-.3-.02-.23.14-.37.5-.41Zm.23-2.17c-.07-.11.07-.24.41-.4.23-.02.41-.04.53-.05.24-.02.47-.02.72.02.24.04.48.04.72.02.02.24.05.47.07.71-.24.02-.47.05-.71.07-.37-.08-.67-.11-.9-.09-.49-.07-.76-.16-.83-.28Zm1.07,4.37c.24-.02.41-.04.53-.05.49.19.76.46.8.82.01.12-.13.22-.42.31-.29.09-.56.03-.82-.18-.14-.22-.22-.43-.24-.6-.02-.18.03-.27.15-.28Zm.83-2.41c.12-.01.24.04.37.14.12-.01.29-.03.53-.05.06.59.11,1.06.14,1.42-.12.01-.18-.04-.2-.16l-.18.02c-.93-.98-1.16-1.44-.67-1.37Zm.87,14.05c.24-.02.67.11,1.29.41.39.32.62.56.7.73.08.17.06.32-.05.45-.21.26-.41.38-.59.33-.18-.04-.41-.16-.66-.38-.52-.42-.82-.78-.91-1.07-.09-.28-.02-.45.22-.47Zm.37,3.72c-.01-.12,0-.27.05-.45.04-.18.06-.33.04-.45l.18-.02c.13.11.25.15.37.14.13.11.25.15.37.14,1.15.72,1.01,1.15-.41,1.29-.24.02-.42-.02-.55-.12-.13-.1-.15-.28-.05-.53Zm1.29-81.56c.02.24-.03.36-.14.37-.12.01-.16-.04-.11-.17.05-.12.13-.19.25-.2Zm-.16,73.21c.38.2.58.42.6.66l.02.18c-.11.13-.25.15-.44.04-.19-.1-.36-.26-.5-.49-.13-.1-.23-.24-.31-.42-.08-.17-.12-.31-.13-.44-.01-.11.04-.18.16-.19l.02.17c.12-.01.24,0,.36.05.12.05.2.19.22.43Zm-3.22-78.42c-.24.02-.35.09-.34.21-.11.13-.22.2-.34.21-.01-.12-.02-.23-.04-.35-.02-.24-.01-.42.04-.54.05-.12.13-.19.25-.2.12-.01.21.04.28.15.07.11.12.29.14.53Zm-.58,1.31c.13.11.26.21.39.32.02.24-.08.43-.3.56-.35.04-.55-.12-.59-.48.09-.25.26-.39.5-.41Zm.8,7.97c.13.11.15.28.05.53-.11.13-.28.21-.51.23-.24.02-.48-.01-.73-.11-.26-.21-.37-.41-.33-.59.04-.18.18-.29.42-.31.24-.02.41-.04.53-.05.25.09.44.2.57.3Zm-.94,18.26c.2.16.3.3.31.41.02.24-.02.39-.13.46-.11.07-.26.09-.44.05-.18-.04-.35-.17-.49-.4-.13-.1-.23-.21-.3-.33-.07-.11-.05-.23.05-.36.12-.01.23-.08.34-.21.25.09.47.22.66.38Zm-1.34-8.9c-.13-.1-.21-.27-.23-.51.21-.26.38-.4.5-.41.12-.01.19.1.21.34-.08.36-.24.56-.48.59Zm-.22,17.38c-.12.01-.27-.03-.46-.13-.19-.1-.29-.21-.3-.33-.14-.22-.25-.36-.31-.42-.07-.05-.04-.14.06-.27.12-.01.43.13.94.44.28.45.31.69.07.71Zm-.68-15.68c.12-.01.21.04.28.15.07.11.11.23.12.34.01.12.02.21.03.26,0,.06.01.12.02.18,0,.06-.05.09-.17.1l-.2-.16c-.13-.1-.26-.21-.39-.32-.01-.12,0-.24.05-.36.05-.12.13-.19.25-.21Zm-.61-7.81c-.43-.67-.28-1.05.43-1.12.12-.01.27,0,.45.04.18.04.28.12.29.24.04.35-.09.61-.37.75-.28.15-.55.17-.8.08Zm.48,15.52c.04.35-.06.57-.29.65-.23.09-.53.03-.91-.17-.13-.1-.18-.25-.13-.44.04-.18.14-.34.31-.48.17-.13.31-.21.43-.22.12-.01.24.06.38.23.13.17.21.31.22.43Zm0,14.32c.12-.01.36.05.74.19.37.14.69.32.95.53.53.55.68.83.44.85-.24.02-.8-.21-1.68-.73-.51-.31-.77-.52-.78-.64-.01-.12.1-.19.34-.21Zm1.67,7.71c-.12.01-.24.02-.35.04-.12.01-.3-.03-.55-.12-.38-.2-.55-.42-.51-.66.03-.24.23-.38.58-.42.24-.02.42.02.55.12.13.11.21.28.23.51.02.24.04.42.05.53Zm-1.8.8c.44.26.89.54,1.34.85.45.31.68.53.69.65.04.35-.07.55-.3.57-.24.02-.54-.06-.92-.27-.38-.2-.76-.46-1.15-.78-.78-.64-1.12-1.08-1.03-1.33-.01-.11.01-.18.07-.18.06,0,.15.04.28.15.24-.02.58.09,1.02.34Zm-.88-1.61c-.17.14-.3.27-.41.4-.23.14-.4.19-.52.14-.12-.05-.13-.13-.03-.26.07-.48.33-.81.8-.98l.18-.02c.01.12.07.17.19.16l.02.18c.01.12-.07.25-.23.38Zm-.22-8.39c-.12.01-.24,0-.36-.05-.13-.04-.25-.06-.36-.05-.38-.2-.58-.42-.6-.66-.02-.23.2-.38.67-.43l-.02-.18c.48.07.75.34.8.82-.09.25-.13.43-.12.55Zm-.41-2.29c-.11.13-.22.2-.34.21-.24.02-.42-.02-.55-.12-.13-.1-.21-.27-.23-.51-.01-.12.09-.25.32-.39.12-.01.24.04.37.14.13.11.25.15.37.14.14.23.16.4.05.53Zm-.73,3.47c.12-.01.21.01.28.06.06.05.1.14.11.26.02.24-.08.37-.32.39-.35.04-.54-.06-.57-.3-.01-.12,0-.21.06-.28.05-.06.2-.11.43-.13Zm2.39,23.74c-.11.13-.21.32-.3.57-.13-.1-.2-.22-.21-.33-.01-.12-.02-.24-.04-.36-.05-.47.11-.73.46-.76.24-.02.26.21.07.71l.02.18Zm-.33,10.95c.12-.01.24,0,.36.05.12.05.19.13.2.25.01.12-.04.21-.15.28-.11.07-.23.11-.35.13-.12.01-.24,0-.36-.05-.12-.05-.19-.13-.2-.25-.01-.12.04-.21.15-.28.11-.07.23-.11.34-.13Zm.57-6.86c-.11.13-.22.2-.34.21-.24.02-.36-.08-.39-.32-.01-.12.03-.24.14-.37.1-.13.22-.2.34-.21.12-.01.21,0,.27.06.06.06.1.14.11.26.01.12-.04.24-.14.37Zm-.37,10.59c-.25-.09-.45-.25-.58-.48-.02-.24-.1-.41-.23-.52.12-.01.17-.08.16-.19l.02.17c.24-.02.51.01.82.1.3.09.62.21.93.35.31.15.48.34.51.58.07.71-.47.7-1.61-.02Zm2,3.92c.12-.01.24-.02.35-.04.12-.01.21-.02.27-.03.06,0,.1.05.11.17-.12.01-.3.03-.53.05-.59.06-.66,0-.2-.16Zm-.02-1.97c.12-.01.27,0,.45.04.18.04.34.18.49.4.53.54.29.57-.71.07-.14-.22-.25-.36-.31-.42-.07-.05-.04-.09.08-.1Zm.05,5.81c0-.06-.02-.15-.03-.27.01.12.05.2.12.26.06.06.1.14.12.26-.13-.11-.2-.19-.2-.25Zm.89-1.79c-.13-.11-.2-.19-.2-.25,0-.06.05-.09.17-.11.23-.02.42-.01.54.04.12.05.25.12.38.23.15.34.11.53-.12.55-.35.04-.61-.12-.76-.46Zm1.02,4.82c-.11.07-.29.12-.52.14-.16-.34-.24-.63-.27-.87.13.11.26.22.39.32.12-.01.3.03.55.12.01.12-.04.21-.15.28Zm-1.17-15.18c-.25-.09-.44-.22-.58-.39-.14-.17-.21-.31-.22-.43-.01-.12-.02-.21-.03-.27,0-.06.05-.09.17-.11l.18-.02c.47-.05,1.03.2,1.68.73.65.53.8.84.45.94-.35.1-.9-.06-1.66-.46Zm2.67,19.42c-.17-.46-.45-.91-.85-1.35.24-.02.45.02.64.12.19.1.35.26.5.49.63.29.86.54.7.73-.16.19-.49.2-.98.01Zm1.33,2.55c-.01-.12-.02-.21-.03-.26,0-.06-.08-.14-.2-.25l-.02-.17c.12-.01.24,0,.36.05.12.05.2.19.22.43-.11.13-.22.2-.34.21Zm.16-5.56c-.14-.22-.22-.45-.25-.69-.02-.24.02-.36.14-.37.24-.02.49.13.76.46.25.1.44.23.58.39.13.17.21.31.22.43.02.24-.12.34-.42.31-.3-.03-.65-.2-1.04-.52Zm2.29,4.06c-.3.03-.59-.18-.87-.63-.14-.22-.22-.4-.23-.52-.01-.12.03-.24.14-.37.11-.13.22-.2.34-.21.23-.02.45.07.65.29.2.22.32.5.35.86.04.35-.1.54-.39.57Zm.89,4.38c-.24.02-.37-.14-.41-.5-.01-.12-.02-.21-.03-.26,0-.06.05-.1.17-.11l.18-.02c.25.1.41.2.48.31.07.11.11.23.12.35-.11.13-.28.2-.51.23Zm8.58,7.02c-.47.05-.72-.05-.74-.29-.02-.24.08-.36.32-.39.12-.01.37.08.74.28.13.11.14.19.03.27-.11.07-.23.11-.34.12Zm1.74,1.26c-.1.25-.22.5-.37.75-.15.25-.35.39-.58.42-.24.02-.37-.14-.41-.49-.01-.12.03-.27.13-.46.1-.19.26-.35.49-.5.22-.14.39-.22.51-.23l.18-.02.18-.02c.01.12-.03.3-.12.55Zm15.73,5.13c-.11.07-.23.11-.34.12-.35.04-.43-.08-.21-.33.08-.36.18-.56.3-.57.12-.01.21.04.28.15.07.11.11.23.12.35.01.12-.04.21-.15.28Zm-1.62-1.89c.22-.14.45-.29.67-.43.58-.18.78-.5.62-.96-.14-.22-.22-.45-.25-.69.12-.01.47.49,1.05,1.5.27.33.48.64.63.92.15.28.23.49.24.6-.24.02-.45.01-.63-.03-.18-.04-.35-.17-.49-.4-.12.01-.3,0-.54-.04-.24-.04-.48-.04-.72-.02-.23.14-.43.22-.6.24-.18.02-.27-.04-.28-.15-.02-.24.07-.43.3-.57Zm-1.03-3.12c.25.09.38.26.41.5.01.12-.1.24-.32.39-.35.04-.54-.07-.57-.3-.04-.35.12-.55.48-.59Zm-2.35,4.26c.05-.06.14-.1.26-.11.12-.01.21,0,.27.06.06.05.17.19.31.42.64.41.67.77.11,1.06-.23.14-.33.27-.32.39.01.11.08.23.21.33-.37-.08-.67-.11-.9-.09-.05-.48-.09-.86-.12-1.15-.03-.29-.05-.5-.06-.62.1-.13.18-.23.24-.29Zm-3.51-6.45c.05-.07.14-.1.26-.11l.18-.02c.12-.01.21.03.28.15.07.11.14.19.2.25.06.05.1.14.11.26.01.12-.04.21-.15.28-.11.07-.23.11-.35.12-.12.01-.24-.04-.37-.14-.13-.11-.21-.28-.23-.51-.01-.12,0-.21.06-.28Zm.52,2.54l.18-.02c.35-.04.7.11,1.03.44.33.32.51.6.53.84-.11.13-.28.23-.5.32-.23.08-.53.08-.9,0-.49-.07-.81-.28-.96-.62-.15-.34.05-.66.62-.96Zm-1.42,3.63c.12.05.19.13.2.25-.11.13-.16.22-.15.28,0,.06-.11.16-.33.3-.12.01-.21-.04-.28-.15-.07-.11-.11-.23-.12-.35-.02-.24.08-.36.32-.39.12-.01.24,0,.36.05Zm-3.08-7.47c.24-.02.54,0,.9.09.36.08.71.22,1.03.43.32.21.49.43.51.66.16.46.04.71-.37.75-.42.04-.95-.2-1.6-.74-.91-.74-1.07-1.14-.48-1.2Zm-.3,4.14c.22-.14.52-.14.89,0,.37.14.69.38.97.71.78.64,1.09,1.06.93,1.25-.16.19-.75-.02-1.76-.63-.27-.33-.53-.58-.79-.73-.26-.15-.39-.29-.4-.41l.16-.2Zm-.41,3.09c-.13-.11-.26-.15-.37-.14-.14-.22-.39-.32-.74-.28.12-.01.23-.02.35-.04.12-.01.27.03.46.13.19.1.29.21.3.33Zm-.85-3.14c.13.1.2.22.21.33.01.12-.03.27-.13.46-.1.19-.21.29-.33.3-.12.01-.21-.04-.28-.15-.07-.11-.06-.29.04-.54.12-.01.23-.08.34-.21-.01-.12.04-.18.16-.19Zm-.66-4.77c.25.09.38.26.41.49.05.47-.11.73-.46.76-.38-.2-.7-.41-.96-.62-.52-.42-.43-.67.28-.74.24-.02.48.01.73.11Zm-3.05-3.63c.12-.01.24-.02.35-.04.13.1.25.15.37.14.38.2.69.41.96.62.13.11.26.21.39.32l-.18.02c-.13-.11-.31-.15-.55-.12-.37-.08-.67-.17-.92-.26-.25-.1-.38-.26-.41-.5-.13-.11-.14-.16-.02-.18Zm-.83,2.41c.02.23.1.41.23.51.13.1.26.21.39.32.24-.02.39.05.47.22.08.17.12.31.13.43-.29.62-.91.45-1.84-.53-.53-.55-.76-1.06-.69-1.54l.18-.02c-.01-.12.04-.18.16-.2-.01-.12.01-.18.07-.19.06,0,.09.05.11.17l-.02-.18c.25.09.44.19.57.3.13.11.21.34.25.69Zm-2.27-4.78c.21-.26.44-.4.67-.43l.35-.04c.13.1.26.21.39.32.13.1.26.21.39.32-.12.01-.3.03-.53.05-.12.01-.24.02-.35.04-.35.04-.62.03-.81,0-.18-.04-.22-.13-.12-.26Zm-.23,6.65c.22-.14.66.05,1.31.58.9.62,1.05.97.46,1.03-.24.02-.48-.04-.74-.19-.25-.15-.45-.34-.59-.57-.38-.2-.58-.39-.59-.57-.02-.18.03-.27.15-.28Zm-1.47-5.76c-.11.13-.27.27-.5.41-.23.14-.4.21-.51.23-.59.06-1.02-.07-1.29-.41-.14-.22.26-.38,1.2-.48.83-.08,1.19,0,1.1.25Zm-3.26-3.97l.18-.02-.02-.18c.13.1.29.24.49.4.2.16.36.35.51.58.41.55.54.87.36.94-.17.08-.52-.1-1.04-.52-.13-.11-.27-.24-.4-.41-.14-.16-.21-.31-.22-.43-.01-.12-.02-.21-.03-.26,0-.06.05-.09.17-.11Zm-1.01-4.73c.78.64.93.98.46,1.03-.24.02-.52-.07-.83-.27-.32-.2-.61-.47-.89-.8-.8-.87-1.03-1.33-.67-1.37.24-.02.88.45,1.93,1.42Zm.03-101.3c-.01-.12.04-.18.16-.2l-.16.2Zm.95-11.91c.01.12-.04.18-.16.2-.12.01-.31-.09-.57-.3-.26-.21-.43-.41-.5-.58-.08-.17-.06-.32.04-.45-.01-.12.04-.18.16-.19.12-.01.27.03.46.13.19.1.35.26.5.49.14.22.16.46.07.71Zm1.82-1.43c.01.12-.04.24-.14.37-.26-.21-.37-.41-.33-.6.04-.18.24-.29.59-.33.01.12-.03.3-.12.55Zm.49-12.04c-.05.13-.13.19-.25.21-.12.01-.21-.04-.28-.15-.07-.11-.05-.23.05-.36.1-.13.18-.25.23-.38.05-.12.13-.19.25-.2.02.24.04.42.05.53s0,.24-.05.36Zm1.24-4.6c-.25-.09-.41-.25-.5-.49-.08-.23-.07-.41.04-.54.12-.01.24-.02.35-.04.35-.04.66.06.92.27.26.21.4.44.43.67.1.95-.32.99-1.24.12Zm1.19-14.88c-.23.09-.48.02-.74-.19-.02-.24-.04-.41-.05-.53-.01-.12.04-.18.16-.19l.16-.2.18-.02.02.18c.12-.01.25.09.39.32.15.34.12.55-.11.64Zm2.69,8.95c-.11.13-.21.26-.32.39-.13-.1-.2-.22-.21-.34-.14-.22-.04-.35.32-.39l.35-.04c-.11.13-.15.26-.14.37Zm12.49-43.13c-.26-.21-.4-.38-.41-.5l.16-.2c-.01-.12.05-.12.18-.02.24-.02.42.02.55.12.13.11.2.22.21.34-.23.14-.46.22-.69.25Zm2.46-2.22c-.11.13-.22.2-.34.21-.24.02-.42-.02-.55-.13-.13-.11-.21-.27-.23-.51.09-.25.2-.38.32-.39.12-.01.24.04.37.14.13.11.25.15.37.14.14.23.16.4.05.53Zm6.76-18.22c.35-.04.54.06.57.3.04.35-.13.55-.48.59-.24.02-.37-.14-.41-.5-.02-.24.08-.37.32-.39Zm-1.2,4.06c.12-.01.28.06.47.22.2.16.31.36.33.59.01.12.03.26.04.44.02.18-.04.27-.15.28-.13-.1-.26-.21-.39-.32-.13-.1-.26-.21-.39-.32-.27-.33-.41-.56-.43-.67-.01-.12.16-.2.51-.23Zm-.78,6.52l.18-.02c.12-.01.27,0,.45.05.18.04.34.11.47.22.13.11.23.19.29.24.06.06.1.14.11.26-.11.13-.21.26-.32.39-.12.01-.24-.03-.37-.14l-.2-.16c-.25-.09-.44-.22-.58-.39-.14-.16-.21-.3-.22-.43l.18-.02Zm-2.77-4.38c.12-.01.21.01.28.06.06.05.21.07.45.04.76.4,1.12.75,1.09,1.05-.03.3-.41.37-1.14.2-.25-.09-.44-.22-.58-.39-.14-.16-.22-.36-.24-.6-.01-.12.03-.24.14-.37Zm-2.48,5.62c.12-.01.3.06.56.21.25.15.48.34.68.56.2.22.31.39.32.51.04.35-.1.49-.41.4-.31-.09-.6-.36-.89-.81-.26-.21-.4-.41-.42-.58-.02-.18.03-.27.15-.28Zm-2.66,2.06c.35-.04.72.02,1.09.16.37.14.68.29.94.44.25.15.39.35.42.59.06.59-.49.47-1.65-.37-.5-.19-.81-.36-.95-.53-.14-.16-.09-.26.15-.28Zm-1.16,13.36l.18-.02c.13.11.26.21.39.32.13.11.2.22.21.34-.24.02-.42.04-.53.05-.25-.09-.38-.2-.39-.32-.01-.12.03-.24.14-.37Zm-1.49-5.04c.05-.12.13-.19.25-.2.24-.02.42.08.57.3.02.24.04.42.05.53.01.12-.04.18-.16.19-.12.01-.25-.09-.39-.32-.01-.12-.08-.23-.21-.34-.12.01-.16-.04-.11-.17Zm-3.03,12.56c.06.05.16.07.27.06.02.24.04.44.06.62.02.18-.03.33-.13.46-.32.39-.62.36-.9-.09-.13-.1-.18-.25-.13-.44.04-.18.12-.34.22-.47-.01-.12.1-.19.34-.21.12-.01.21.01.28.06Zm-1.2-7.49c-.01-.12-.02-.23-.04-.35.12-.01.21.01.28.06.06.05.1.14.11.25.84,1.23.67,1.37-.5.41-.02-.23.02-.36.14-.37Zm-.98,3.59c.17-.07.31-.12.43-.13.59-.06.9.03.92.26-.08.37-.36.57-.83.62-.12.01-.27,0-.45-.04-.18-.04-.29-.18-.31-.42-.01-.12.07-.21.24-.29Zm-.27,15.15c.05-.12.13-.19.25-.2.12-.01.21.04.28.15.07.11.12.29.14.52.01.12.02.24.04.35-.12.01-.24-.03-.37-.14-.13-.11-.26-.15-.37-.14-.02-.24-.01-.42.04-.54Zm-1.58-4.13c.12-.01.27.03.46.13.19.1.35.23.49.4.13.17.15.31.04.44-.12.01-.21.02-.27.03-.06,0-.21-.04-.46-.13-.01-.11-.08-.17-.19-.16-.4-.44-.43-.67-.07-.71Zm.27,9.82c-.09.25-.1.49-.02.72.08.23.19.46.34.68.13.11.19.1.18-.02.01.12.02.21.03.26,0,.06-.05.15-.15.28-.12.01-.25-.06-.38-.23-.14-.17-.28-.36-.42-.59-.18-.58-.44-.85-.8-.81-.26-.21-.39-.38-.41-.5-.01-.12.07-.21.24-.29.17-.08.37-.13.61-.15.49.19.75.4.78.64Zm-1.89-12.6c.05-.07.14-.11.26-.12l.18-.02c.13.11.27.33.43.67.04.35-.07.55-.3.57-.37-.08-.57-.3-.6-.65-.02-.24-.01-.38.04-.45Zm-1.28,6.84c.06,0,.15-.01.27-.03.35-.04.72.05,1.1.25.38.2.58.42.6.66.09.94-.44,1-1.6.16-.14-.22-.35-.5-.62-.83.11-.13.19-.2.25-.21Zm1.39,9.35c.04.35-.06.6-.28.74-.34.16-.53.05-.57-.3-.05-.47.11-.73.46-.76.23-.02.37.08.39.32Zm-1.03,4.04c.25.09.5.25.76.46.13.11.26.21.39.32l.19.16c.01.12-.04.18-.16.2l.02.18c-.36.04-.85-.15-1.49-.57-.51-.31-.8-.52-.87-.63-.07-.11.07-.19.43-.22.24-.02.48.01.73.11Zm-3.02-10.43c.47-.05.96.02,1.45.21.49.19.75.4.78.64.06.59-.48.53-1.63-.19-.64-.41-.84-.63-.6-.65Zm-.58,13.84c.25.1.44.23.58.39.13.17.18.34.14.52-.04.18-.18.29-.42.31-.47.05-.73-.16-.78-.64-.01-.12.03-.3.12-.55l.35-.04Zm-1.68-4.3l.19.16c.12-.01.24.04.37.14.24-.02.39.08.48.31.08.23.14.46.16.7.04.35,0,.51-.13.46-.12-.05-.38-.23-.77-.55-.54-.66-.64-1.07-.3-1.22Zm-.47,11.41c.12.05.26.19.4.41.14.22.28.42.42.58.13.17.14.26.03.27.01.12-.08.13-.27.03-.19-.1-.35-.2-.48-.31-.26-.21-.43-.4-.51-.58-.08-.17-.12-.31-.13-.44l.18-.02c.12-.01.24,0,.36.05Zm-.9-8.95c.13.11.23.19.29.24.06.05.1.14.12.26.01.12-.04.18-.16.2-.12.01-.24-.04-.37-.14l-.02-.18.16-.2-.02-.17Zm-1.04,11.91c.05-.12.12-.25.23-.38l.34-.21c.13.1.26.21.39.32.02.24.04.42.05.53s-.04.18-.16.19c-.11.13-.22.17-.34.13-.13-.05-.25-.12-.38-.23-.13-.1-.17-.22-.12-.35Zm.41,8.55c.24-.02.48.04.74.19.25.15.39.35.42.59.54.66.58,1.02.11,1.06-.35.04-.79-.1-1.29-.41-.4-.43-.59-.77-.55-1.01.04-.24.23-.38.58-.42Zm-.8-15.13l.18-.02c.01.12-.14.43-.44.94.2-.38.29-.68.27-.92Zm-.47,25.64l.2.16c.13.1.26.27.41.49.14.23.22.4.23.52-.11.13-.19.23-.24.29-.05.07-.2.05-.45-.04-.01-.12-.06-.26-.13-.44-.08-.17-.13-.37-.15-.61-.01-.12-.02-.2-.03-.26,0-.06.05-.09.17-.11Zm-.47,11.32c-.1.25-.23.35-.42.31-.18-.04-.28-.12-.29-.24-.27-.33-.35-.56-.25-.69.11-.13.28-.21.51-.23.12-.01.24.04.37.14.39.32.42.56.07.71Zm.1-16.83c.01.12-.03.3-.12.55-.26-.21-.46-.37-.59-.48-.14-.23-.04-.36.32-.39.23-.02.37.08.39.32Zm-.68-12.1c.24-.02.37.14.41.5.01.12.02.21.03.26,0,.06-.05.1-.17.11l-.2-.16-.19-.16c-.27-.33-.23-.51.12-.55Zm-1.33,8.19c.11-.13.22-.2.34-.21.12-.01.21.04.28.15.07.11.12.29.14.52.02.24.01.42-.03.54-.05.13-.13.19-.25.2-.12.01-.24-.03-.37-.14-.13-.1-.21-.27-.23-.51-.02-.24.02-.42.12-.55Zm.13,19.14c.14.23-.03.36-.5.41-.47.05-.72-.04-.74-.28-.01-.12.09-.3.3-.57.35-.04.67.11.94.44Zm-2.13-14.1c.12-.01.17-.08.16-.19.12-.01.21,0,.27.06.07.05.16.07.28.06.14.22.22.46.25.69.02.24-.08.37-.32.39-.35.04-.6-.05-.74-.28l-.02-.18c-.01-.12-.03-.29-.05-.53l.18-.02Zm-1.61,7.14c.13.1.32.21.57.3.49.19.84.39,1.04.61.2.22.31.39.32.51.01.12-.13.22-.42.31-.29.09-.58.12-.89.09-.3-.03-.51-.04-.63-.03-.01-.12-.08-.17-.2-.16-.01-.12-.03-.29-.05-.53.09-.25.18-.61.25-1.09Zm-.6,6.5c-.01-.12.05-.12.18-.02.25.09.44.25.58.48-.11.13-.28.21-.51.23-.12.01-.25-.09-.39-.32-.01-.12-.02-.2-.03-.26,0-.06.05-.09.17-.11Zm-.53,3.63c.12-.01.24-.02.35-.04.12-.01.27.06.47.22.2.16.31.36.33.6.04.35-.07.54-.3.56-.24.02-.5-.19-.78-.64-.12.01-.19-.07-.2-.25-.02-.18.03-.33.13-.46Zm-1.26,7.1l.18-.02c.12-.01.3.06.56.21.25.15.51.4.79.73,1.58,1.51,1.42,1.65-.5.41-.26-.21-.66-.59-1.19-1.13l.16-.19Zm-1.08,1.72c.25.09.43.14.55.12.13.11.25.15.37.14.52.43.78.7.8.81-.11.13-.28.18-.52.14-.24-.03-.49-.16-.75-.37-.25-.09-.45-.25-.59-.48-.01-.12.04-.24.14-.37Zm-.65,9.55c.24-.02.47-.02.72.02.24.04.37.17.4.41.55.78.27.87-.87.27-.76-.4-.84-.63-.25-.69Zm-.62,11.69l.18-.02c.23-.02.6.06,1.1.25.68.89.4,1.03-.85.44-.25-.09-.41-.19-.48-.31-.07-.11-.05-.23.05-.36Zm-.28-9.01c.06.06.1.14.12.26.01.12.02.21.03.26,0,.06-.05.09-.17.11l-.18.02c-.01-.12-.02-.24-.04-.35-.01-.12-.02-.24-.04-.35.12-.01.21,0,.27.06Zm-.85,15.57c.24-.02.54.07.92.27.38.2.73.44,1.05.7.32.26.5.52.52.75.34,1.04-.21.92-1.65-.37-.26-.21-.6-.6-1.01-1.15-.01-.12.04-.18.16-.2Zm-.71,3.65c.12-.01.3.06.56.21.25.15.39.35.42.59.02.24-.08.36-.32.39-.24.02-.49-.07-.74-.28-.02-.24-.04-.41-.05-.53.1-.13.15-.25.14-.37Z"/><path class="cls-2" d="m159.94,132.44l3.75,7.86c.38.81.35,1.75-.1,2.52l-4.35,7.54c-1.12,1.95.48,4.34,2.7,4.04l8.63-1.14c.88-.12,1.77.21,2.37.87l5.83,6.47c1.5,1.67,4.27.89,4.68-1.32l1.59-8.56c.16-.88.75-1.62,1.56-1.98l7.95-3.55c2.05-.92,2.16-3.79.19-4.86l-7.65-4.15c-.78-.43-1.31-1.21-1.4-2.1l-.92-8.66c-.24-2.23-2.93-3.23-4.56-1.68l-6.32,5.99c-.65.61-1.56.87-2.43.69l-8.52-1.8c-2.2-.47-3.98,1.79-3.01,3.82Z"/></g></svg>